<svg xmlns="http://www.w3.org/2000/svg" version="1.1" xmlns:xlink="http://www.w3.org/1999/xlink" xmlns:svgjs="http://svgjs.com/svgjs" width="1200" height="1600" preserveAspectRatio="none" viewBox="0 0 1200 1600"><g mask="url(&quot;#SvgjsMask1047&quot;)" fill="none"><path d="M125.11 74.74L184 108.74L184 176.74L125.11 210.74L66.22 176.74L66.22 108.74zM125.11 482.74L184 516.74L184 584.74L125.11 618.74L66.22 584.74L66.22 516.74zM66.22 584.74L125.11 618.74L125.11 686.74L66.22 720.74L7.33 686.74L7.33 618.74zM66.22 1196.74L125.11 1230.74L125.11 1298.74L66.22 1332.74L7.33 1298.74L7.33 1230.74zM66.22 1400.74L125.11 1434.74L125.11 1502.74L66.22 1536.74L7.33 1502.74L7.33 1434.74zM184 992.74L242.89 1026.74L242.89 1094.74L184 1128.74L125.11 1094.74L125.11 1026.74zM242.89 1094.74L301.79 1128.74L301.79 1196.74L242.89 1230.74L184 1196.74L184 1128.74zM184 1604.74L242.89 1638.74L242.89 1706.74L184 1740.74L125.11 1706.74L125.11 1638.74zM301.79 380.74L360.68 414.74L360.68 482.74L301.79 516.74L242.89 482.74L242.89 414.74zM301.79 584.74L360.68 618.74L360.68 686.74L301.79 720.74L242.89 686.74L242.89 618.74zM360.68 890.74L419.57 924.74L419.57 992.74L360.68 1026.74L301.79 992.74L301.79 924.74zM301.79 1196.74L360.68 1230.74L360.68 1298.74L301.79 1332.74L242.89 1298.74L242.89 1230.74zM301.79 1400.74L360.68 1434.74L360.68 1502.74L301.79 1536.74L242.89 1502.74L242.89 1434.74zM478.46 278.74L537.35 312.74L537.35 380.74L478.46 414.74L419.57 380.74L419.57 312.74zM478.46 890.74L537.35 924.74L537.35 992.74L478.46 1026.74L419.57 992.74L419.57 924.74zM419.57 1196.74L478.46 1230.74L478.46 1298.74L419.57 1332.74L360.68 1298.74L360.68 1230.74zM596.24 74.74L655.13 108.74L655.13 176.74L596.24 210.74L537.35 176.74L537.35 108.74zM537.35 176.74L596.24 210.74L596.24 278.74L537.35 312.74L478.46 278.74L478.46 210.74zM537.35 380.74L596.24 414.74L596.24 482.74L537.35 516.74L478.46 482.74L478.46 414.74zM596.24 482.74L655.13 516.74L655.13 584.74L596.24 618.74L537.35 584.74L537.35 516.74zM596.24 890.74L655.13 924.74L655.13 992.74L596.24 1026.74L537.35 992.74L537.35 924.74zM537.35 992.74L596.24 1026.74L596.24 1094.74L537.35 1128.74L478.46 1094.74L478.46 1026.74zM596.24 1094.74L655.13 1128.74L655.13 1196.74L596.24 1230.74L537.35 1196.74L537.35 1128.74zM655.13 -27.26L714.03 6.74L714.03 74.74L655.13 108.74L596.24 74.74L596.24 6.74zM714.03 482.74L772.92 516.74L772.92 584.74L714.03 618.74L655.13 584.74L655.13 516.74zM655.13 992.74L714.03 1026.74L714.03 1094.74L655.13 1128.74L596.24 1094.74L596.24 1026.74zM714.03 1094.74L772.92 1128.74L772.92 1196.74L714.03 1230.74L655.13 1196.74L655.13 1128.74zM714.03 1298.74L772.92 1332.74L772.92 1400.74L714.03 1434.74L655.13 1400.74L655.13 1332.74zM655.13 1400.74L714.03 1434.74L714.03 1502.74L655.13 1536.74L596.24 1502.74L596.24 1434.74zM831.81 74.74L890.7 108.74L890.7 176.74L831.81 210.74L772.92 176.74L772.92 108.74zM772.92 380.74L831.81 414.74L831.81 482.74L772.92 516.74L714.03 482.74L714.03 414.74zM831.81 890.74L890.7 924.74L890.7 992.74L831.81 1026.74L772.92 992.74L772.92 924.74zM890.7 176.74L949.59 210.74L949.59 278.74L890.7 312.74L831.81 278.74L831.81 210.74zM949.59 482.74L1008.48 516.74L1008.48 584.74L949.59 618.74L890.7 584.74L890.7 516.74zM890.7 584.74L949.59 618.74L949.59 686.74L890.7 720.74L831.81 686.74L831.81 618.74zM949.59 686.74L1008.48 720.74L1008.48 788.74L949.59 822.74L890.7 788.74L890.7 720.74zM949.59 1094.74L1008.48 1128.74L1008.48 1196.74L949.59 1230.74L890.7 1196.74L890.7 1128.74zM890.7 1400.74L949.59 1434.74L949.59 1502.74L890.7 1536.74L831.81 1502.74L831.81 1434.74zM949.59 1502.74L1008.48 1536.74L1008.48 1604.74L949.59 1638.74L890.7 1604.74L890.7 1536.74zM1067.37 278.74L1126.27 312.74L1126.27 380.74L1067.37 414.74L1008.48 380.74L1008.48 312.74zM1008.48 380.74L1067.37 414.74L1067.37 482.74L1008.48 516.74L949.59 482.74L949.59 414.74zM1008.48 584.74L1067.37 618.74L1067.37 686.74L1008.48 720.74L949.59 686.74L949.59 618.74zM1008.48 788.74L1067.37 822.74L1067.37 890.74L1008.48 924.74L949.59 890.74L949.59 822.74zM1067.37 890.74L1126.27 924.74L1126.27 992.74L1067.37 1026.74L1008.48 992.74L1008.48 924.74zM1008.48 992.74L1067.37 1026.74L1067.37 1094.74L1008.48 1128.74L949.59 1094.74L949.59 1026.74zM1067.37 1298.74L1126.27 1332.74L1126.27 1400.74L1067.37 1434.74L1008.48 1400.74L1008.48 1332.74zM1008.48 1400.74L1067.37 1434.74L1067.37 1502.74L1008.48 1536.74L949.59 1502.74L949.59 1434.74zM1067.37 1502.74L1126.27 1536.74L1126.27 1604.74L1067.37 1638.74L1008.48 1604.74L1008.48 1536.74zM1126.27 -27.26L1185.16 6.74L1185.16 74.74L1126.27 108.74L1067.37 74.74L1067.37 6.74zM1126.27 176.74L1185.16 210.74L1185.16 278.74L1126.27 312.74L1067.37 278.74L1067.37 210.74zM1185.16 278.74L1244.05 312.74L1244.05 380.74L1185.16 414.74L1126.27 380.74L1126.27 312.74zM1126.27 380.74L1185.16 414.74L1185.16 482.74L1126.27 516.74L1067.37 482.74L1067.37 414.74zM1185.16 482.74L1244.05 516.74L1244.05 584.74L1185.16 618.74L1126.27 584.74L1126.27 516.74zM1126.27 788.74L1185.16 822.74L1185.16 890.74L1126.27 924.74L1067.37 890.74L1067.37 822.74zM1244.05 176.74L1302.94 210.74L1302.94 278.74L1244.05 312.74L1185.16 278.74L1185.16 210.74zM1244.05 380.74L1302.94 414.74L1302.94 482.74L1244.05 516.74L1185.16 482.74L1185.16 414.74zM1302.94 482.74L1361.83 516.74L1361.83 584.74L1302.94 618.74L1244.05 584.74L1244.05 516.74zM1302.94 686.74L1361.83 720.74L1361.83 788.74L1302.94 822.74L1244.05 788.74L1244.05 720.74zM1302.94 890.74L1361.83 924.74L1361.83 992.74L1302.94 1026.74L1244.05 992.74L1244.05 924.74zM1302.94 1094.74L1361.83 1128.74L1361.83 1196.74L1302.94 1230.74L1244.05 1196.74L1244.05 1128.74zM1244.05 1400.74L1302.94 1434.74L1302.94 1502.74L1244.05 1536.74L1185.16 1502.74L1185.16 1434.74z" stroke="rgba(145, 154, 128, 1)" stroke-width="2"></path><path d="M9.66 -28.35L39.97 -10.85L39.97 24.15L9.66 41.65L-20.65 24.15L-20.65 -10.85zM39.97 234.15L70.28 251.65L70.28 286.65L39.97 304.15L9.66 286.65L9.66 251.65zM39.97 969.15L70.28 986.65L70.28 1021.65L39.97 1039.15L9.66 1021.65L9.66 986.65zM39.97 1284.15L70.28 1301.65L70.28 1336.65L39.97 1354.15L9.66 1336.65L9.66 1301.65zM9.66 1336.65L39.97 1354.15L39.97 1389.15L9.66 1406.65L-20.65 1389.15L-20.65 1354.15zM70.28 601.65L100.6 619.15L100.6 654.15L70.28 671.65L39.97 654.15L39.97 619.15zM100.6 1074.15L130.91 1091.65L130.91 1126.65L100.6 1144.15L70.28 1126.65L70.28 1091.65zM100.6 1179.15L130.91 1196.65L130.91 1231.65L100.6 1249.15L70.28 1231.65L70.28 1196.65zM161.22 24.15L191.53 41.65L191.53 76.65L161.22 94.15L130.91 76.65L130.91 41.65zM130.91 286.65L161.22 304.15L161.22 339.15L130.91 356.65L100.6 339.15L100.6 304.15zM161.22 654.15L191.53 671.65L191.53 706.65L161.22 724.15L130.91 706.65L130.91 671.65zM130.91 706.65L161.22 724.15L161.22 759.15L130.91 776.65L100.6 759.15L100.6 724.15zM161.22 1074.15L191.53 1091.65L191.53 1126.65L161.22 1144.15L130.91 1126.65L130.91 1091.65zM161.22 1389.15L191.53 1406.65L191.53 1441.65L161.22 1459.15L130.91 1441.65L130.91 1406.65zM130.91 1441.65L161.22 1459.15L161.22 1494.15L130.91 1511.65L100.6 1494.15L100.6 1459.15zM191.53 -28.35L221.84 -10.85L221.84 24.15L191.53 41.65L161.22 24.15L161.22 -10.85zM191.53 76.65L221.84 94.15L221.84 129.15L191.53 146.65L161.22 129.15L161.22 94.15zM221.84 129.15L252.15 146.65L252.15 181.65L221.84 199.15L191.53 181.65L191.53 146.65zM221.84 339.15L252.15 356.65L252.15 391.65L221.84 409.15L191.53 391.65L191.53 356.65zM191.53 496.65L221.84 514.15L221.84 549.15L191.53 566.65L161.22 549.15L161.22 514.15zM191.53 601.65L221.84 619.15L221.84 654.15L191.53 671.65L161.22 654.15L161.22 619.15zM221.84 864.15L252.15 881.65L252.15 916.65L221.84 934.15L191.53 916.65L191.53 881.65zM191.53 1231.65L221.84 1249.15L221.84 1284.15L191.53 1301.65L161.22 1284.15L161.22 1249.15zM252.15 496.65L282.47 514.15L282.47 549.15L252.15 566.65L221.84 549.15L221.84 514.15zM282.47 864.15L312.78 881.65L312.78 916.65L282.47 934.15L252.15 916.65L252.15 881.65zM282.47 1074.15L312.78 1091.65L312.78 1126.65L282.47 1144.15L252.15 1126.65L252.15 1091.65zM252.15 1336.65L282.47 1354.15L282.47 1389.15L252.15 1406.65L221.84 1389.15L221.84 1354.15zM343.09 234.15L373.4 251.65L373.4 286.65L343.09 304.15L312.78 286.65L312.78 251.65zM312.78 706.65L343.09 724.15L343.09 759.15L312.78 776.65L282.47 759.15L282.47 724.15zM312.78 916.65L343.09 934.15L343.09 969.15L312.78 986.65L282.47 969.15L282.47 934.15zM343.09 1179.15L373.4 1196.65L373.4 1231.65L343.09 1249.15L312.78 1231.65L312.78 1196.65zM312.78 1546.65L343.09 1564.15L343.09 1599.15L312.78 1616.65L282.47 1599.15L282.47 1564.15zM403.71 24.15L434.02 41.65L434.02 76.65L403.71 94.15L373.4 76.65L373.4 41.65zM373.4 1231.65L403.71 1249.15L403.71 1284.15L373.4 1301.65L343.09 1284.15L343.09 1249.15zM403.71 1389.15L434.02 1406.65L434.02 1441.65L403.71 1459.15L373.4 1441.65L373.4 1406.65zM434.02 391.65L464.34 409.15L464.34 444.15L434.02 461.65L403.71 444.15L403.71 409.15zM494.65 601.65L524.96 619.15L524.96 654.15L494.65 671.65L464.34 654.15L464.34 619.15zM524.96 1179.15L555.27 1196.65L555.27 1231.65L524.96 1249.15L494.65 1231.65L494.65 1196.65zM494.65 1231.65L524.96 1249.15L524.96 1284.15L494.65 1301.65L464.34 1284.15L464.34 1249.15zM494.65 1336.65L524.96 1354.15L524.96 1389.15L494.65 1406.65L464.34 1389.15L464.34 1354.15zM494.65 1441.65L524.96 1459.15L524.96 1494.15L494.65 1511.65L464.34 1494.15L464.34 1459.15zM494.65 1546.65L524.96 1564.15L524.96 1599.15L494.65 1616.65L464.34 1599.15L464.34 1564.15zM585.58 24.15L615.89 41.65L615.89 76.65L585.58 94.15L555.27 76.65L555.27 41.65zM555.27 1546.65L585.58 1564.15L585.58 1599.15L555.27 1616.65L524.96 1599.15L524.96 1564.15zM646.21 24.15L676.52 41.65L676.52 76.65L646.21 94.15L615.89 76.65L615.89 41.65zM646.21 129.15L676.52 146.65L676.52 181.65L646.21 199.15L615.89 181.65L615.89 146.65zM646.21 654.15L676.52 671.65L676.52 706.65L646.21 724.15L615.89 706.65L615.89 671.65zM646.21 969.15L676.52 986.65L676.52 1021.65L646.21 1039.15L615.89 1021.65L615.89 986.65zM767.45 24.15L797.77 41.65L797.77 76.65L767.45 94.15L737.14 76.65L737.14 41.65zM797.77 601.65L828.08 619.15L828.08 654.15L797.77 671.65L767.45 654.15L767.45 619.15zM797.77 811.65L828.08 829.15L828.08 864.15L797.77 881.65L767.45 864.15L767.45 829.15zM828.08 1284.15L858.39 1301.65L858.39 1336.65L828.08 1354.15L797.77 1336.65L797.77 1301.65zM858.39 76.65L888.7 94.15L888.7 129.15L858.39 146.65L828.08 129.15L828.08 94.15zM858.39 601.65L888.7 619.15L888.7 654.15L858.39 671.65L828.08 654.15L828.08 619.15zM919.01 -28.35L949.32 -10.85L949.32 24.15L919.01 41.65L888.7 24.15L888.7 -10.85zM919.01 496.65L949.32 514.15L949.32 549.15L919.01 566.65L888.7 549.15L888.7 514.15zM949.32 654.15L979.64 671.65L979.64 706.65L949.32 724.15L919.01 706.65L919.01 671.65zM979.64 391.65L1009.95 409.15L1009.95 444.15L979.64 461.65L949.32 444.15L949.32 409.15zM1009.95 444.15L1040.26 461.65L1040.26 496.65L1009.95 514.15L979.64 496.65L979.64 461.65zM1009.95 759.15L1040.26 776.65L1040.26 811.65L1009.95 829.15L979.64 811.65L979.64 776.65zM1009.95 969.15L1040.26 986.65L1040.26 1021.65L1009.95 1039.15L979.64 1021.65L979.64 986.65zM1040.26 76.65L1070.57 94.15L1070.57 129.15L1040.26 146.65L1009.95 129.15L1009.95 94.15zM1040.26 181.65L1070.57 199.15L1070.57 234.15L1040.26 251.65L1009.95 234.15L1009.95 199.15zM1070.57 339.15L1100.88 356.65L1100.88 391.65L1070.57 409.15L1040.26 391.65L1040.26 356.65zM1040.26 1021.65L1070.57 1039.15L1070.57 1074.15L1040.26 1091.65L1009.95 1074.15L1009.95 1039.15zM1070.57 1074.15L1100.88 1091.65L1100.88 1126.65L1070.57 1144.15L1040.26 1126.65L1040.26 1091.65zM1131.19 339.15L1161.51 356.65L1161.51 391.65L1131.19 409.15L1100.88 391.65L1100.88 356.65zM1100.88 391.65L1131.19 409.15L1131.19 444.15L1100.88 461.65L1070.57 444.15L1070.57 409.15zM1100.88 601.65L1131.19 619.15L1131.19 654.15L1100.88 671.65L1070.57 654.15L1070.57 619.15zM1100.88 811.65L1131.19 829.15L1131.19 864.15L1100.88 881.65L1070.57 864.15L1070.57 829.15zM1131.19 864.15L1161.51 881.65L1161.51 916.65L1131.19 934.15L1100.88 916.65L1100.88 881.65zM1100.88 1021.65L1131.19 1039.15L1131.19 1074.15L1100.88 1091.65L1070.57 1074.15L1070.57 1039.15zM1131.19 1179.15L1161.51 1196.65L1161.51 1231.65L1131.19 1249.15L1100.88 1231.65L1100.88 1196.65zM1161.51 181.65L1191.82 199.15L1191.82 234.15L1161.51 251.65L1131.19 234.15L1131.19 199.15zM1191.82 759.15L1222.13 776.65L1222.13 811.65L1191.82 829.15L1161.51 811.65L1161.51 776.65z" stroke="rgba(98, 110, 73, 1)" stroke-width="2"></path></g><defs><mask id="SvgjsMask1047"><rect width="1200" height="1600" fill="#ffffff"></rect></mask></defs></svg>