<svg xmlns="http://www.w3.org/2000/svg" version="1.1" xmlns:xlink="http://www.w3.org/1999/xlink" xmlns:svgjs="http://svgjs.com/svgjs" width="600" height="800" preserveAspectRatio="none" viewBox="0 0 600 800"><g mask="url(&quot;#SvgjsMask1147&quot;)" fill="none"><path d="M-25.11 667.15L-25.11 667.15" stroke="rgba(206, 206, 206, 1)" stroke-width="1.5"></path><path d="M-25.11 667.15L-55.06 757.31" stroke="rgba(206, 206, 206, 1)" stroke-width="1.5"></path><path d="M-25.11 667.15L53.82 747.46" stroke="rgba(206, 206, 206, 1)" stroke-width="1.5"></path><path d="M-25.11 667.15L46.34 535.47" stroke="rgba(206, 206, 206, 1)" stroke-width="1.5"></path><path d="M-25.11 667.15L131.8 649.31" stroke="rgba(206, 206, 206, 1)" stroke-width="1.5"></path><path d="M-55.06 757.31L-55.06 757.31" stroke="rgba(206, 206, 206, 1)" stroke-width="1.5"></path><path d="M-55.06 757.31L-48.92 836.82" stroke="rgba(206, 206, 206, 1)" stroke-width="1.5"></path><path d="M-55.06 757.31L53.82 747.46" stroke="rgba(206, 206, 206, 1)" stroke-width="1.5"></path><path d="M-55.06 757.31L40.07 834.33" stroke="rgba(206, 206, 206, 1)" stroke-width="1.5"></path><path d="M-55.06 757.31L128.2 757.8" stroke="rgba(206, 206, 206, 1)" stroke-width="1.5"></path><path d="M-55.06 757.31L131.8 649.31" stroke="rgba(206, 206, 206, 1)" stroke-width="1.5"></path><path d="M-48.92 836.82L-48.92 836.82" stroke="rgba(206, 206, 206, 1)" stroke-width="1.5"></path><path d="M-48.92 836.82L40.07 834.33" stroke="rgba(206, 206, 206, 1)" stroke-width="1.5"></path><path d="M-48.92 836.82L53.82 747.46" stroke="rgba(206, 206, 206, 1)" stroke-width="1.5"></path><path d="M-48.92 836.82L-25.11 667.15" stroke="rgba(206, 206, 206, 1)" stroke-width="1.5"></path><path d="M46.34 535.47L46.34 535.47" stroke="rgba(206, 206, 206, 1)" stroke-width="1.5"></path><path d="M46.34 535.47L150.26 537.21" stroke="rgba(206, 206, 206, 1)" stroke-width="1.5"></path><path d="M53.82 747.46L53.82 747.46" stroke="rgba(206, 206, 206, 1)" stroke-width="1.5"></path><path d="M53.82 747.46L128.2 757.8" stroke="rgba(206, 206, 206, 1)" stroke-width="1.5"></path><path d="M53.82 747.46L40.07 834.33" stroke="rgba(206, 206, 206, 1)" stroke-width="1.5"></path><path d="M40.07 834.33L40.07 834.33" stroke="rgba(206, 206, 206, 1)" stroke-width="1.5"></path><path d="M40.07 834.33L128.2 757.8" stroke="rgba(206, 206, 206, 1)" stroke-width="1.5"></path><path d="M152.63 451.71L152.63 451.71" stroke="rgba(206, 206, 206, 1)" stroke-width="1.5"></path><path d="M152.63 451.71L150.26 537.21" stroke="rgba(206, 206, 206, 1)" stroke-width="1.5"></path><path d="M152.63 451.71L271.63 464.72" stroke="rgba(206, 206, 206, 1)" stroke-width="1.5"></path><path d="M152.63 451.71L46.34 535.47" stroke="rgba(206, 206, 206, 1)" stroke-width="1.5"></path><path d="M152.63 451.71L260.74 361.78" stroke="rgba(206, 206, 206, 1)" stroke-width="1.5"></path><path d="M152.63 451.71L270.28 557.44" stroke="rgba(206, 206, 206, 1)" stroke-width="1.5"></path><path d="M152.63 451.71L332.65 461.98" stroke="rgba(206, 206, 206, 1)" stroke-width="1.5"></path><path d="M150.26 537.21L150.26 537.21" stroke="rgba(206, 206, 206, 1)" stroke-width="1.5"></path><path d="M150.26 537.21L131.8 649.31" stroke="rgba(206, 206, 206, 1)" stroke-width="1.5"></path><path d="M150.26 537.21L270.28 557.44" stroke="rgba(206, 206, 206, 1)" stroke-width="1.5"></path><path d="M131.8 649.31L131.8 649.31" stroke="rgba(206, 206, 206, 1)" stroke-width="1.5"></path><path d="M131.8 649.31L128.2 757.8" stroke="rgba(206, 206, 206, 1)" stroke-width="1.5"></path><path d="M131.8 649.31L53.82 747.46" stroke="rgba(206, 206, 206, 1)" stroke-width="1.5"></path><path d="M128.2 757.8L128.2 757.8" stroke="rgba(206, 206, 206, 1)" stroke-width="1.5"></path><path d="M128.2 757.8L171.55 840.1" stroke="rgba(206, 206, 206, 1)" stroke-width="1.5"></path><path d="M171.55 840.1L171.55 840.1" stroke="rgba(206, 206, 206, 1)" stroke-width="1.5"></path><path d="M171.55 840.1L229.47 858.69" stroke="rgba(206, 206, 206, 1)" stroke-width="1.5"></path><path d="M171.55 840.1L263.51 770.77" stroke="rgba(206, 206, 206, 1)" stroke-width="1.5"></path><path d="M171.55 840.1L40.07 834.33" stroke="rgba(206, 206, 206, 1)" stroke-width="1.5"></path><path d="M171.55 840.1L53.82 747.46" stroke="rgba(206, 206, 206, 1)" stroke-width="1.5"></path><path d="M260.74 361.78L260.74 361.78" stroke="rgba(206, 206, 206, 1)" stroke-width="1.5"></path><path d="M260.74 361.78L339.17 366.23" stroke="rgba(206, 206, 206, 1)" stroke-width="1.5"></path><path d="M260.74 361.78L271.63 464.72" stroke="rgba(206, 206, 206, 1)" stroke-width="1.5"></path><path d="M271.63 464.72L271.63 464.72" stroke="rgba(206, 206, 206, 1)" stroke-width="1.5"></path><path d="M271.63 464.72L332.65 461.98" stroke="rgba(206, 206, 206, 1)" stroke-width="1.5"></path><path d="M271.63 464.72L270.28 557.44" stroke="rgba(206, 206, 206, 1)" stroke-width="1.5"></path><path d="M270.28 557.44L270.28 557.44" stroke="rgba(206, 206, 206, 1)" stroke-width="1.5"></path><path d="M270.28 557.44L327.45 548.09" stroke="rgba(206, 206, 206, 1)" stroke-width="1.5"></path><path d="M256.15 668.99L256.15 668.99" stroke="rgba(206, 206, 206, 1)" stroke-width="1.5"></path><path d="M256.15 668.99L263.51 770.77" stroke="rgba(206, 206, 206, 1)" stroke-width="1.5"></path><path d="M256.15 668.99L270.28 557.44" stroke="rgba(206, 206, 206, 1)" stroke-width="1.5"></path><path d="M256.15 668.99L349.06 744.88" stroke="rgba(206, 206, 206, 1)" stroke-width="1.5"></path><path d="M256.15 668.99L131.8 649.31" stroke="rgba(206, 206, 206, 1)" stroke-width="1.5"></path><path d="M256.15 668.99L327.45 548.09" stroke="rgba(206, 206, 206, 1)" stroke-width="1.5"></path><path d="M263.51 770.77L263.51 770.77" stroke="rgba(206, 206, 206, 1)" stroke-width="1.5"></path><path d="M263.51 770.77L349.06 744.88" stroke="rgba(206, 206, 206, 1)" stroke-width="1.5"></path><path d="M263.51 770.77L229.47 858.69" stroke="rgba(206, 206, 206, 1)" stroke-width="1.5"></path><path d="M229.47 858.69L229.47 858.69" stroke="rgba(206, 206, 206, 1)" stroke-width="1.5"></path><path d="M229.47 858.69L362.43 855.67" stroke="rgba(206, 206, 206, 1)" stroke-width="1.5"></path><path d="M229.47 858.69L128.2 757.8" stroke="rgba(206, 206, 206, 1)" stroke-width="1.5"></path><path d="M374.04 -34.47L374.04 -34.47" stroke="rgba(206, 206, 206, 1)" stroke-width="1.5"></path><path d="M374.04 -34.47L448.69 -70.71" stroke="rgba(206, 206, 206, 1)" stroke-width="1.5"></path><path d="M374.04 -34.47L445.96 51.81" stroke="rgba(206, 206, 206, 1)" stroke-width="1.5"></path><path d="M374.04 -34.47L531.31 30.13" stroke="rgba(206, 206, 206, 1)" stroke-width="1.5"></path><path d="M374.04 -34.47L557.18 -42.68" stroke="rgba(206, 206, 206, 1)" stroke-width="1.5"></path><path d="M344.24 234.6L344.24 234.6" stroke="rgba(206, 206, 206, 1)" stroke-width="1.5"></path><path d="M344.24 234.6L428.05 233.01" stroke="rgba(206, 206, 206, 1)" stroke-width="1.5"></path><path d="M344.24 234.6L339.17 366.23" stroke="rgba(206, 206, 206, 1)" stroke-width="1.5"></path><path d="M344.24 234.6L460.82 145.61" stroke="rgba(206, 206, 206, 1)" stroke-width="1.5"></path><path d="M344.24 234.6L449.24 342.37" stroke="rgba(206, 206, 206, 1)" stroke-width="1.5"></path><path d="M339.17 366.23L339.17 366.23" stroke="rgba(206, 206, 206, 1)" stroke-width="1.5"></path><path d="M339.17 366.23L332.65 461.98" stroke="rgba(206, 206, 206, 1)" stroke-width="1.5"></path><path d="M339.17 366.23L449.24 342.37" stroke="rgba(206, 206, 206, 1)" stroke-width="1.5"></path><path d="M332.65 461.98L332.65 461.98" stroke="rgba(206, 206, 206, 1)" stroke-width="1.5"></path><path d="M332.65 461.98L327.45 548.09" stroke="rgba(206, 206, 206, 1)" stroke-width="1.5"></path><path d="M327.45 548.09L327.45 548.09" stroke="rgba(206, 206, 206, 1)" stroke-width="1.5"></path><path d="M327.45 548.09L271.63 464.72" stroke="rgba(206, 206, 206, 1)" stroke-width="1.5"></path><path d="M349.06 744.88L349.06 744.88" stroke="rgba(206, 206, 206, 1)" stroke-width="1.5"></path><path d="M349.06 744.88L362.43 855.67" stroke="rgba(206, 206, 206, 1)" stroke-width="1.5"></path><path d="M362.43 855.67L362.43 855.67" stroke="rgba(206, 206, 206, 1)" stroke-width="1.5"></path><path d="M362.43 855.67L469.15 855.33" stroke="rgba(206, 206, 206, 1)" stroke-width="1.5"></path><path d="M448.69 -70.71L448.69 -70.71" stroke="rgba(206, 206, 206, 1)" stroke-width="1.5"></path><path d="M448.69 -70.71L557.18 -42.68" stroke="rgba(206, 206, 206, 1)" stroke-width="1.5"></path><path d="M448.69 -70.71L445.96 51.81" stroke="rgba(206, 206, 206, 1)" stroke-width="1.5"></path><path d="M448.69 -70.71L531.31 30.13" stroke="rgba(206, 206, 206, 1)" stroke-width="1.5"></path><path d="M448.69 -70.71L640.11 -39.53" stroke="rgba(206, 206, 206, 1)" stroke-width="1.5"></path><path d="M448.69 -70.71L460.82 145.61" stroke="rgba(206, 206, 206, 1)" stroke-width="1.5"></path><path d="M445.96 51.81L445.96 51.81" stroke="rgba(206, 206, 206, 1)" stroke-width="1.5"></path><path d="M445.96 51.81L531.31 30.13" stroke="rgba(206, 206, 206, 1)" stroke-width="1.5"></path><path d="M445.96 51.81L460.82 145.61" stroke="rgba(206, 206, 206, 1)" stroke-width="1.5"></path><path d="M460.82 145.61L460.82 145.61" stroke="rgba(206, 206, 206, 1)" stroke-width="1.5"></path><path d="M460.82 145.61L428.05 233.01" stroke="rgba(206, 206, 206, 1)" stroke-width="1.5"></path><path d="M460.82 145.61L567.14 158.05" stroke="rgba(206, 206, 206, 1)" stroke-width="1.5"></path><path d="M460.82 145.61L531.15 254.4" stroke="rgba(206, 206, 206, 1)" stroke-width="1.5"></path><path d="M428.05 233.01L428.05 233.01" stroke="rgba(206, 206, 206, 1)" stroke-width="1.5"></path><path d="M428.05 233.01L531.15 254.4" stroke="rgba(206, 206, 206, 1)" stroke-width="1.5"></path><path d="M428.05 233.01L449.24 342.37" stroke="rgba(206, 206, 206, 1)" stroke-width="1.5"></path><path d="M428.05 233.01L567.14 158.05" stroke="rgba(206, 206, 206, 1)" stroke-width="1.5"></path><path d="M449.24 342.37L449.24 342.37" stroke="rgba(206, 206, 206, 1)" stroke-width="1.5"></path><path d="M449.24 342.37L531.66 352.74" stroke="rgba(206, 206, 206, 1)" stroke-width="1.5"></path><path d="M449.24 342.37L531.15 254.4" stroke="rgba(206, 206, 206, 1)" stroke-width="1.5"></path><path d="M449.24 342.37L537.37 431.32" stroke="rgba(206, 206, 206, 1)" stroke-width="1.5"></path><path d="M449.24 342.37L469.29 466.59" stroke="rgba(206, 206, 206, 1)" stroke-width="1.5"></path><path d="M469.29 466.59L469.29 466.59" stroke="rgba(206, 206, 206, 1)" stroke-width="1.5"></path><path d="M469.29 466.59L467.55 532.58" stroke="rgba(206, 206, 206, 1)" stroke-width="1.5"></path><path d="M469.29 466.59L537.37 431.32" stroke="rgba(206, 206, 206, 1)" stroke-width="1.5"></path><path d="M469.29 466.59L569.1 529.66" stroke="rgba(206, 206, 206, 1)" stroke-width="1.5"></path><path d="M469.29 466.59L531.66 352.74" stroke="rgba(206, 206, 206, 1)" stroke-width="1.5"></path><path d="M467.55 532.58L467.55 532.58" stroke="rgba(206, 206, 206, 1)" stroke-width="1.5"></path><path d="M467.55 532.58L569.1 529.66" stroke="rgba(206, 206, 206, 1)" stroke-width="1.5"></path><path d="M445.73 670.8L445.73 670.8" stroke="rgba(206, 206, 206, 1)" stroke-width="1.5"></path><path d="M445.73 670.8L474.19 751.5" stroke="rgba(206, 206, 206, 1)" stroke-width="1.5"></path><path d="M445.73 670.8L531.48 629.37" stroke="rgba(206, 206, 206, 1)" stroke-width="1.5"></path><path d="M445.73 670.8L349.06 744.88" stroke="rgba(206, 206, 206, 1)" stroke-width="1.5"></path><path d="M474.19 751.5L474.19 751.5" stroke="rgba(206, 206, 206, 1)" stroke-width="1.5"></path><path d="M474.19 751.5L469.15 855.33" stroke="rgba(206, 206, 206, 1)" stroke-width="1.5"></path><path d="M474.19 751.5L553.9 826.17" stroke="rgba(206, 206, 206, 1)" stroke-width="1.5"></path><path d="M474.19 751.5L349.06 744.88" stroke="rgba(206, 206, 206, 1)" stroke-width="1.5"></path><path d="M469.15 855.33L469.15 855.33" stroke="rgba(206, 206, 206, 1)" stroke-width="1.5"></path><path d="M469.15 855.33L553.9 826.17" stroke="rgba(206, 206, 206, 1)" stroke-width="1.5"></path><path d="M469.15 855.33L349.06 744.88" stroke="rgba(206, 206, 206, 1)" stroke-width="1.5"></path><path d="M469.15 855.33L445.73 670.8" stroke="rgba(206, 206, 206, 1)" stroke-width="1.5"></path><path d="M469.15 855.33L663.56 842.62" stroke="rgba(206, 206, 206, 1)" stroke-width="1.5"></path><path d="M557.18 -42.68L557.18 -42.68" stroke="rgba(206, 206, 206, 1)" stroke-width="1.5"></path><path d="M557.18 -42.68L531.31 30.13" stroke="rgba(206, 206, 206, 1)" stroke-width="1.5"></path><path d="M557.18 -42.68L640.11 -39.53" stroke="rgba(206, 206, 206, 1)" stroke-width="1.5"></path><path d="M531.31 30.13L531.31 30.13" stroke="rgba(206, 206, 206, 1)" stroke-width="1.5"></path><path d="M531.31 30.13L634.36 52.77" stroke="rgba(206, 206, 206, 1)" stroke-width="1.5"></path><path d="M531.31 30.13L640.11 -39.53" stroke="rgba(206, 206, 206, 1)" stroke-width="1.5"></path><path d="M531.31 30.13L567.14 158.05" stroke="rgba(206, 206, 206, 1)" stroke-width="1.5"></path><path d="M567.14 158.05L567.14 158.05" stroke="rgba(206, 206, 206, 1)" stroke-width="1.5"></path><path d="M567.14 158.05L531.15 254.4" stroke="rgba(206, 206, 206, 1)" stroke-width="1.5"></path><path d="M567.14 158.05L670.97 151.64" stroke="rgba(206, 206, 206, 1)" stroke-width="1.5"></path><path d="M567.14 158.05L643.96 253.17" stroke="rgba(206, 206, 206, 1)" stroke-width="1.5"></path><path d="M567.14 158.05L634.36 52.77" stroke="rgba(206, 206, 206, 1)" stroke-width="1.5"></path><path d="M531.15 254.4L531.15 254.4" stroke="rgba(206, 206, 206, 1)" stroke-width="1.5"></path><path d="M531.15 254.4L531.66 352.74" stroke="rgba(206, 206, 206, 1)" stroke-width="1.5"></path><path d="M531.15 254.4L643.96 253.17" stroke="rgba(206, 206, 206, 1)" stroke-width="1.5"></path><path d="M531.66 352.74L531.66 352.74" stroke="rgba(206, 206, 206, 1)" stroke-width="1.5"></path><path d="M531.66 352.74L537.37 431.32" stroke="rgba(206, 206, 206, 1)" stroke-width="1.5"></path><path d="M537.37 431.32L537.37 431.32" stroke="rgba(206, 206, 206, 1)" stroke-width="1.5"></path><path d="M569.1 529.66L569.1 529.66" stroke="rgba(206, 206, 206, 1)" stroke-width="1.5"></path><path d="M569.1 529.66L537.37 431.32" stroke="rgba(206, 206, 206, 1)" stroke-width="1.5"></path><path d="M569.1 529.66L674.34 537.48" stroke="rgba(206, 206, 206, 1)" stroke-width="1.5"></path><path d="M569.1 529.66L531.48 629.37" stroke="rgba(206, 206, 206, 1)" stroke-width="1.5"></path><path d="M531.48 629.37L531.48 629.37" stroke="rgba(206, 206, 206, 1)" stroke-width="1.5"></path><path d="M531.48 629.37L634.68 629.05" stroke="rgba(206, 206, 206, 1)" stroke-width="1.5"></path><path d="M553.9 826.17L553.9 826.17" stroke="rgba(206, 206, 206, 1)" stroke-width="1.5"></path><path d="M553.9 826.17L663.56 842.62" stroke="rgba(206, 206, 206, 1)" stroke-width="1.5"></path><path d="M553.9 826.17L670.52 741.92" stroke="rgba(206, 206, 206, 1)" stroke-width="1.5"></path><path d="M553.9 826.17L445.73 670.8" stroke="rgba(206, 206, 206, 1)" stroke-width="1.5"></path><path d="M640.11 -39.53L640.11 -39.53" stroke="rgba(206, 206, 206, 1)" stroke-width="1.5"></path><path d="M640.11 -39.53L634.36 52.77" stroke="rgba(206, 206, 206, 1)" stroke-width="1.5"></path><path d="M640.11 -39.53L670.97 151.64" stroke="rgba(206, 206, 206, 1)" stroke-width="1.5"></path><path d="M640.11 -39.53L567.14 158.05" stroke="rgba(206, 206, 206, 1)" stroke-width="1.5"></path><path d="M634.36 52.77L634.36 52.77" stroke="rgba(206, 206, 206, 1)" stroke-width="1.5"></path><path d="M634.36 52.77L670.97 151.64" stroke="rgba(206, 206, 206, 1)" stroke-width="1.5"></path><path d="M634.36 52.77L557.18 -42.68" stroke="rgba(206, 206, 206, 1)" stroke-width="1.5"></path><path d="M670.97 151.64L670.97 151.64" stroke="rgba(206, 206, 206, 1)" stroke-width="1.5"></path><path d="M670.97 151.64L643.96 253.17" stroke="rgba(206, 206, 206, 1)" stroke-width="1.5"></path><path d="M643.96 253.17L643.96 253.17" stroke="rgba(206, 206, 206, 1)" stroke-width="1.5"></path><path d="M643.96 253.17L650.3 343.29" stroke="rgba(206, 206, 206, 1)" stroke-width="1.5"></path><path d="M650.3 343.29L650.3 343.29" stroke="rgba(206, 206, 206, 1)" stroke-width="1.5"></path><path d="M670.55 437.31L670.55 437.31" stroke="rgba(206, 206, 206, 1)" stroke-width="1.5"></path><path d="M670.55 437.31L650.3 343.29" stroke="rgba(206, 206, 206, 1)" stroke-width="1.5"></path><path d="M670.55 437.31L674.34 537.48" stroke="rgba(206, 206, 206, 1)" stroke-width="1.5"></path><path d="M670.55 437.31L537.37 431.32" stroke="rgba(206, 206, 206, 1)" stroke-width="1.5"></path><path d="M674.34 537.48L674.34 537.48" stroke="rgba(206, 206, 206, 1)" stroke-width="1.5"></path><path d="M674.34 537.48L634.68 629.05" stroke="rgba(206, 206, 206, 1)" stroke-width="1.5"></path><path d="M634.68 629.05L634.68 629.05" stroke="rgba(206, 206, 206, 1)" stroke-width="1.5"></path><path d="M634.68 629.05L670.52 741.92" stroke="rgba(206, 206, 206, 1)" stroke-width="1.5"></path><path d="M670.52 741.92L670.52 741.92" stroke="rgba(206, 206, 206, 1)" stroke-width="1.5"></path><path d="M670.52 741.92L663.56 842.62" stroke="rgba(206, 206, 206, 1)" stroke-width="1.5"></path><path d="M663.56 842.62L663.56 842.62" stroke="rgba(206, 206, 206, 1)" stroke-width="1.5"></path><circle r="5" cx="-25.11" cy="667.15" fill="rgba(206, 206, 206, 1)"></circle><circle r="5" cx="-55.06" cy="757.31" fill="rgba(206, 206, 206, 1)"></circle><circle r="5" cx="-48.92" cy="836.82" fill="rgba(206, 206, 206, 1)"></circle><circle r="5" cx="46.34" cy="535.47" fill="rgba(206, 206, 206, 1)"></circle><circle r="5" cx="53.82" cy="747.46" fill="rgba(206, 206, 206, 1)"></circle><circle r="5" cx="40.07" cy="834.33" fill="rgba(206, 206, 206, 1)"></circle><circle r="5" cx="152.63" cy="451.71" fill="rgba(206, 206, 206, 1)"></circle><circle r="5" cx="150.26" cy="537.21" fill="rgba(206, 206, 206, 1)"></circle><circle r="5" cx="131.8" cy="649.31" fill="rgba(206, 206, 206, 1)"></circle><circle r="5" cx="128.2" cy="757.8" fill="rgba(206, 206, 206, 1)"></circle><circle r="5" cx="171.55" cy="840.1" fill="rgba(206, 206, 206, 1)"></circle><circle r="5" cx="260.74" cy="361.78" fill="rgba(206, 206, 206, 1)"></circle><circle r="5" cx="271.63" cy="464.72" fill="rgba(206, 206, 206, 1)"></circle><circle r="5" cx="270.28" cy="557.44" fill="rgba(206, 206, 206, 1)"></circle><circle r="5" cx="256.15" cy="668.99" fill="rgba(206, 206, 206, 1)"></circle><circle r="5" cx="263.51" cy="770.77" fill="rgba(206, 206, 206, 1)"></circle><circle r="5" cx="229.47" cy="858.69" fill="rgba(206, 206, 206, 1)"></circle><circle r="5" cx="374.04" cy="-34.47" fill="rgba(206, 206, 206, 1)"></circle><circle r="5" cx="344.24" cy="234.6" fill="rgba(206, 206, 206, 1)"></circle><circle r="5" cx="339.17" cy="366.23" fill="rgba(206, 206, 206, 1)"></circle><circle r="5" cx="332.65" cy="461.98" fill="rgba(206, 206, 206, 1)"></circle><circle r="5" cx="327.45" cy="548.09" fill="rgba(206, 206, 206, 1)"></circle><circle r="5" cx="349.06" cy="744.88" fill="rgba(206, 206, 206, 1)"></circle><circle r="5" cx="362.43" cy="855.67" fill="rgba(206, 206, 206, 1)"></circle><circle r="5" cx="448.69" cy="-70.71" fill="rgba(206, 206, 206, 1)"></circle><circle r="5" cx="445.96" cy="51.81" fill="rgba(206, 206, 206, 1)"></circle><circle r="5" cx="460.82" cy="145.61" fill="rgba(206, 206, 206, 1)"></circle><circle r="5" cx="428.05" cy="233.01" fill="rgba(206, 206, 206, 1)"></circle><circle r="5" cx="449.24" cy="342.37" fill="rgba(206, 206, 206, 1)"></circle><circle r="5" cx="469.29" cy="466.59" fill="rgba(206, 206, 206, 1)"></circle><circle r="5" cx="467.55" cy="532.58" fill="rgba(206, 206, 206, 1)"></circle><circle r="5" cx="445.73" cy="670.8" fill="rgba(206, 206, 206, 1)"></circle><circle r="5" cx="474.19" cy="751.5" fill="rgba(206, 206, 206, 1)"></circle><circle r="5" cx="469.15" cy="855.33" fill="rgba(206, 206, 206, 1)"></circle><circle r="5" cx="557.18" cy="-42.68" fill="rgba(206, 206, 206, 1)"></circle><circle r="5" cx="531.31" cy="30.13" fill="rgba(206, 206, 206, 1)"></circle><circle r="5" cx="567.14" cy="158.05" fill="rgba(206, 206, 206, 1)"></circle><circle r="5" cx="531.15" cy="254.4" fill="rgba(206, 206, 206, 1)"></circle><circle r="5" cx="531.66" cy="352.74" fill="rgba(206, 206, 206, 1)"></circle><circle r="5" cx="537.37" cy="431.32" fill="rgba(206, 206, 206, 1)"></circle><circle r="5" cx="569.1" cy="529.66" fill="rgba(206, 206, 206, 1)"></circle><circle r="5" cx="531.48" cy="629.37" fill="rgba(206, 206, 206, 1)"></circle><circle r="5" cx="553.9" cy="826.17" fill="rgba(206, 206, 206, 1)"></circle><circle r="5" cx="640.11" cy="-39.53" fill="rgba(206, 206, 206, 1)"></circle><circle r="5" cx="634.36" cy="52.77" fill="rgba(206, 206, 206, 1)"></circle><circle r="5" cx="670.97" cy="151.64" fill="rgba(206, 206, 206, 1)"></circle><circle r="5" cx="643.96" cy="253.17" fill="rgba(206, 206, 206, 1)"></circle><circle r="5" cx="650.3" cy="343.29" fill="rgba(206, 206, 206, 1)"></circle><circle r="5" cx="670.55" cy="437.31" fill="rgba(206, 206, 206, 1)"></circle><circle r="5" cx="674.34" cy="537.48" fill="rgba(206, 206, 206, 1)"></circle><circle r="5" cx="634.68" cy="629.05" fill="rgba(206, 206, 206, 1)"></circle><circle r="5" cx="670.52" cy="741.92" fill="rgba(206, 206, 206, 1)"></circle><circle r="5" cx="663.56" cy="842.62" fill="rgba(206, 206, 206, 1)"></circle><path d="M264.81 654.08L264.81 654.08" stroke="hsl(79.5, 20.2%, 46.6%)" stroke-width="1.5"></path><path d="M264.81 654.08L332.61 670.95" stroke="hsl(79.5, 20.2%, 46.6%)" stroke-width="1.5"></path><path d="M264.81 654.08L235.2 763.26" stroke="hsl(79.5, 20.2%, 46.6%)" stroke-width="1.5"></path><path d="M264.81 654.08L140.56 673.81" stroke="hsl(79.5, 20.2%, 46.6%)" stroke-width="1.5"></path><path d="M264.81 654.08L366.98 758.96" stroke="hsl(79.5, 20.2%, 46.6%)" stroke-width="1.5"></path><path d="M264.81 654.08L345.07 527.34" stroke="hsl(79.5, 20.2%, 46.6%)" stroke-width="1.5"></path><path d="M264.81 654.08L152.66 760.86" stroke="hsl(79.5, 20.2%, 46.6%)" stroke-width="1.5"></path><path d="M235.2 763.26L235.2 763.26" stroke="hsl(79.5, 20.2%, 46.6%)" stroke-width="1.5"></path><path d="M235.2 763.26L152.66 760.86" stroke="hsl(79.5, 20.2%, 46.6%)" stroke-width="1.5"></path><path d="M235.2 763.26L171.27 846.09" stroke="hsl(79.5, 20.2%, 46.6%)" stroke-width="1.5"></path><path d="M235.2 763.26L228.19 868.38" stroke="hsl(79.5, 20.2%, 46.6%)" stroke-width="1.5"></path><path d="M345.07 527.34L345.07 527.34" stroke="hsl(79.5, 20.2%, 46.6%)" stroke-width="1.5"></path><path d="M345.07 527.34L331.39 463.93" stroke="hsl(79.5, 20.2%, 46.6%)" stroke-width="1.5"></path><path d="M450.24 227.45L450.24 227.45" stroke="hsl(79.5, 20.2%, 46.6%)" stroke-width="1.5"></path><path d="M450.24 227.45L468.57 158.7" stroke="hsl(79.5, 20.2%, 46.6%)" stroke-width="1.5"></path><path d="M450.24 227.45L428.59 328.36" stroke="hsl(79.5, 20.2%, 46.6%)" stroke-width="1.5"></path><path d="M450.24 227.45L568.3 132.51" stroke="hsl(79.5, 20.2%, 46.6%)" stroke-width="1.5"></path><path d="M450.24 227.45L551.25 344.4" stroke="hsl(79.5, 20.2%, 46.6%)" stroke-width="1.5"></path><path d="M450.24 227.45L644.13 160.93" stroke="hsl(79.5, 20.2%, 46.6%)" stroke-width="1.5"></path><path d="M450.24 227.45L655.84 244.39" stroke="hsl(79.5, 20.2%, 46.6%)" stroke-width="1.5"></path><path d="M428.59 328.36L428.59 328.36" stroke="hsl(79.5, 20.2%, 46.6%)" stroke-width="1.5"></path><path d="M428.59 328.36L551.25 344.4" stroke="hsl(79.5, 20.2%, 46.6%)" stroke-width="1.5"></path><path d="M463.47 458.04L463.47 458.04" stroke="hsl(79.5, 20.2%, 46.6%)" stroke-width="1.5"></path><path d="M463.47 458.04L537.47 440.6" stroke="hsl(79.5, 20.2%, 46.6%)" stroke-width="1.5"></path><path d="M463.47 458.04L426.73 573.3" stroke="hsl(79.5, 20.2%, 46.6%)" stroke-width="1.5"></path><path d="M463.47 458.04L560.93 536.23" stroke="hsl(79.5, 20.2%, 46.6%)" stroke-width="1.5"></path><path d="M463.47 458.04L331.39 463.93" stroke="hsl(79.5, 20.2%, 46.6%)" stroke-width="1.5"></path><path d="M463.47 458.04L428.59 328.36" stroke="hsl(79.5, 20.2%, 46.6%)" stroke-width="1.5"></path><path d="M463.47 458.04L345.07 527.34" stroke="hsl(79.5, 20.2%, 46.6%)" stroke-width="1.5"></path><path d="M426.73 573.3L426.73 573.3" stroke="hsl(79.5, 20.2%, 46.6%)" stroke-width="1.5"></path><path d="M426.73 573.3L443.79 640.64" stroke="hsl(79.5, 20.2%, 46.6%)" stroke-width="1.5"></path><path d="M426.73 573.3L345.07 527.34" stroke="hsl(79.5, 20.2%, 46.6%)" stroke-width="1.5"></path><path d="M557.24 -71.72L557.24 -71.72" stroke="hsl(79.5, 20.2%, 46.6%)" stroke-width="1.5"></path><path d="M557.24 -71.72L626.69 -34.35" stroke="hsl(79.5, 20.2%, 46.6%)" stroke-width="1.5"></path><path d="M557.24 -71.72L649.35 48.22" stroke="hsl(79.5, 20.2%, 46.6%)" stroke-width="1.5"></path><path d="M557.24 -71.72L568.3 132.51" stroke="hsl(79.5, 20.2%, 46.6%)" stroke-width="1.5"></path><path d="M557.24 -71.72L468.57 158.7" stroke="hsl(79.5, 20.2%, 46.6%)" stroke-width="1.5"></path><path d="M537.47 440.6L537.47 440.6" stroke="hsl(79.5, 20.2%, 46.6%)" stroke-width="1.5"></path><path d="M537.47 440.6L551.25 344.4" stroke="hsl(79.5, 20.2%, 46.6%)" stroke-width="1.5"></path><path d="M537.47 440.6L560.93 536.23" stroke="hsl(79.5, 20.2%, 46.6%)" stroke-width="1.5"></path><path d="M537.47 440.6L656.18 465.76" stroke="hsl(79.5, 20.2%, 46.6%)" stroke-width="1.5"></path><path d="M537.47 440.6L629.9 345.91" stroke="hsl(79.5, 20.2%, 46.6%)" stroke-width="1.5"></path><path d="M-47.94 644.4L-47.94 644.4" stroke="hsl(79.5, 20.2%, 46.6%)" stroke-width="1.5"></path><path d="M-47.94 644.4L-39.12 752.71" stroke="hsl(79.5, 20.2%, 46.6%)" stroke-width="1.5"></path><path d="M-47.94 644.4L74.18 640.11" stroke="hsl(79.5, 20.2%, 46.6%)" stroke-width="1.5"></path><path d="M-47.94 644.4L62.91 768.6" stroke="hsl(79.5, 20.2%, 46.6%)" stroke-width="1.5"></path><path d="M-47.94 644.4L140.56 673.81" stroke="hsl(79.5, 20.2%, 46.6%)" stroke-width="1.5"></path><path d="M-39.12 752.71L-39.12 752.71" stroke="hsl(79.5, 20.2%, 46.6%)" stroke-width="1.5"></path><path d="M-39.12 752.71L62.91 768.6" stroke="hsl(79.5, 20.2%, 46.6%)" stroke-width="1.5"></path><path d="M-39.12 752.71L-34.52 861.19" stroke="hsl(79.5, 20.2%, 46.6%)" stroke-width="1.5"></path><path d="M-34.52 861.19L-34.52 861.19" stroke="hsl(79.5, 20.2%, 46.6%)" stroke-width="1.5"></path><path d="M-34.52 861.19L49.98 869.94" stroke="hsl(79.5, 20.2%, 46.6%)" stroke-width="1.5"></path><path d="M-34.52 861.19L62.91 768.6" stroke="hsl(79.5, 20.2%, 46.6%)" stroke-width="1.5"></path><path d="M-34.52 861.19L171.27 846.09" stroke="hsl(79.5, 20.2%, 46.6%)" stroke-width="1.5"></path><path d="M-34.52 861.19L152.66 760.86" stroke="hsl(79.5, 20.2%, 46.6%)" stroke-width="1.5"></path><path d="M-34.52 861.19L-47.94 644.4" stroke="hsl(79.5, 20.2%, 46.6%)" stroke-width="1.5"></path><path d="M74.18 640.11L74.18 640.11" stroke="hsl(79.5, 20.2%, 46.6%)" stroke-width="1.5"></path><path d="M74.18 640.11L140.56 673.81" stroke="hsl(79.5, 20.2%, 46.6%)" stroke-width="1.5"></path><path d="M74.18 640.11L62.91 768.6" stroke="hsl(79.5, 20.2%, 46.6%)" stroke-width="1.5"></path><path d="M74.18 640.11L152.66 760.86" stroke="hsl(79.5, 20.2%, 46.6%)" stroke-width="1.5"></path><path d="M62.91 768.6L62.91 768.6" stroke="hsl(79.5, 20.2%, 46.6%)" stroke-width="1.5"></path><path d="M62.91 768.6L152.66 760.86" stroke="hsl(79.5, 20.2%, 46.6%)" stroke-width="1.5"></path><path d="M62.91 768.6L49.98 869.94" stroke="hsl(79.5, 20.2%, 46.6%)" stroke-width="1.5"></path><path d="M49.98 869.94L49.98 869.94" stroke="hsl(79.5, 20.2%, 46.6%)" stroke-width="1.5"></path><path d="M49.98 869.94L171.27 846.09" stroke="hsl(79.5, 20.2%, 46.6%)" stroke-width="1.5"></path><path d="M49.98 869.94L-39.12 752.71" stroke="hsl(79.5, 20.2%, 46.6%)" stroke-width="1.5"></path><path d="M49.98 869.94L152.66 760.86" stroke="hsl(79.5, 20.2%, 46.6%)" stroke-width="1.5"></path><path d="M49.98 869.94L228.19 868.38" stroke="hsl(79.5, 20.2%, 46.6%)" stroke-width="1.5"></path><path d="M140.56 673.81L140.56 673.81" stroke="hsl(79.5, 20.2%, 46.6%)" stroke-width="1.5"></path><path d="M140.56 673.81L152.66 760.86" stroke="hsl(79.5, 20.2%, 46.6%)" stroke-width="1.5"></path><path d="M140.56 673.81L62.91 768.6" stroke="hsl(79.5, 20.2%, 46.6%)" stroke-width="1.5"></path><path d="M140.56 673.81L235.2 763.26" stroke="hsl(79.5, 20.2%, 46.6%)" stroke-width="1.5"></path><path d="M140.56 673.81L171.27 846.09" stroke="hsl(79.5, 20.2%, 46.6%)" stroke-width="1.5"></path><path d="M152.66 760.86L152.66 760.86" stroke="hsl(79.5, 20.2%, 46.6%)" stroke-width="1.5"></path><path d="M152.66 760.86L171.27 846.09" stroke="hsl(79.5, 20.2%, 46.6%)" stroke-width="1.5"></path><path d="M171.27 846.09L171.27 846.09" stroke="hsl(79.5, 20.2%, 46.6%)" stroke-width="1.5"></path><path d="M171.27 846.09L228.19 868.38" stroke="hsl(79.5, 20.2%, 46.6%)" stroke-width="1.5"></path><path d="M228.19 868.38L228.19 868.38" stroke="hsl(79.5, 20.2%, 46.6%)" stroke-width="1.5"></path><path d="M228.19 868.38L341.55 849.72" stroke="hsl(79.5, 20.2%, 46.6%)" stroke-width="1.5"></path><path d="M331.39 463.93L331.39 463.93" stroke="hsl(79.5, 20.2%, 46.6%)" stroke-width="1.5"></path><path d="M332.61 670.95L332.61 670.95" stroke="hsl(79.5, 20.2%, 46.6%)" stroke-width="1.5"></path><path d="M332.61 670.95L366.98 758.96" stroke="hsl(79.5, 20.2%, 46.6%)" stroke-width="1.5"></path><path d="M332.61 670.95L443.79 640.64" stroke="hsl(79.5, 20.2%, 46.6%)" stroke-width="1.5"></path><path d="M332.61 670.95L235.2 763.26" stroke="hsl(79.5, 20.2%, 46.6%)" stroke-width="1.5"></path><path d="M332.61 670.95L426.73 573.3" stroke="hsl(79.5, 20.2%, 46.6%)" stroke-width="1.5"></path><path d="M332.61 670.95L345.07 527.34" stroke="hsl(79.5, 20.2%, 46.6%)" stroke-width="1.5"></path><path d="M366.98 758.96L366.98 758.96" stroke="hsl(79.5, 20.2%, 46.6%)" stroke-width="1.5"></path><path d="M366.98 758.96L341.55 849.72" stroke="hsl(79.5, 20.2%, 46.6%)" stroke-width="1.5"></path><path d="M366.98 758.96L460.88 749.41" stroke="hsl(79.5, 20.2%, 46.6%)" stroke-width="1.5"></path><path d="M366.98 758.96L454.19 825.88" stroke="hsl(79.5, 20.2%, 46.6%)" stroke-width="1.5"></path><path d="M366.98 758.96L235.2 763.26" stroke="hsl(79.5, 20.2%, 46.6%)" stroke-width="1.5"></path><path d="M341.55 849.72L341.55 849.72" stroke="hsl(79.5, 20.2%, 46.6%)" stroke-width="1.5"></path><path d="M468.57 158.7L468.57 158.7" stroke="hsl(79.5, 20.2%, 46.6%)" stroke-width="1.5"></path><path d="M468.57 158.7L568.3 132.51" stroke="hsl(79.5, 20.2%, 46.6%)" stroke-width="1.5"></path><path d="M468.57 158.7L428.59 328.36" stroke="hsl(79.5, 20.2%, 46.6%)" stroke-width="1.5"></path><path d="M443.79 640.64L443.79 640.64" stroke="hsl(79.5, 20.2%, 46.6%)" stroke-width="1.5"></path><path d="M443.79 640.64L460.88 749.41" stroke="hsl(79.5, 20.2%, 46.6%)" stroke-width="1.5"></path><path d="M443.79 640.64L558.03 640.43" stroke="hsl(79.5, 20.2%, 46.6%)" stroke-width="1.5"></path><path d="M460.88 749.41L460.88 749.41" stroke="hsl(79.5, 20.2%, 46.6%)" stroke-width="1.5"></path><path d="M460.88 749.41L454.19 825.88" stroke="hsl(79.5, 20.2%, 46.6%)" stroke-width="1.5"></path><path d="M460.88 749.41L564.07 760.97" stroke="hsl(79.5, 20.2%, 46.6%)" stroke-width="1.5"></path><path d="M454.19 825.88L454.19 825.88" stroke="hsl(79.5, 20.2%, 46.6%)" stroke-width="1.5"></path><path d="M454.19 825.88L536.74 836.59" stroke="hsl(79.5, 20.2%, 46.6%)" stroke-width="1.5"></path><path d="M568.3 132.51L568.3 132.51" stroke="hsl(79.5, 20.2%, 46.6%)" stroke-width="1.5"></path><path d="M568.3 132.51L644.13 160.93" stroke="hsl(79.5, 20.2%, 46.6%)" stroke-width="1.5"></path><path d="M568.3 132.51L649.35 48.22" stroke="hsl(79.5, 20.2%, 46.6%)" stroke-width="1.5"></path><path d="M551.25 344.4L551.25 344.4" stroke="hsl(79.5, 20.2%, 46.6%)" stroke-width="1.5"></path><path d="M551.25 344.4L629.9 345.91" stroke="hsl(79.5, 20.2%, 46.6%)" stroke-width="1.5"></path><path d="M560.93 536.23L560.93 536.23" stroke="hsl(79.5, 20.2%, 46.6%)" stroke-width="1.5"></path><path d="M560.93 536.23L656.19 541.73" stroke="hsl(79.5, 20.2%, 46.6%)" stroke-width="1.5"></path><path d="M558.03 640.43L558.03 640.43" stroke="hsl(79.5, 20.2%, 46.6%)" stroke-width="1.5"></path><path d="M558.03 640.43L652.59 647.03" stroke="hsl(79.5, 20.2%, 46.6%)" stroke-width="1.5"></path><path d="M558.03 640.43L560.93 536.23" stroke="hsl(79.5, 20.2%, 46.6%)" stroke-width="1.5"></path><path d="M558.03 640.43L564.07 760.97" stroke="hsl(79.5, 20.2%, 46.6%)" stroke-width="1.5"></path><path d="M558.03 640.43L656.19 541.73" stroke="hsl(79.5, 20.2%, 46.6%)" stroke-width="1.5"></path><path d="M564.07 760.97L564.07 760.97" stroke="hsl(79.5, 20.2%, 46.6%)" stroke-width="1.5"></path><path d="M564.07 760.97L536.74 836.59" stroke="hsl(79.5, 20.2%, 46.6%)" stroke-width="1.5"></path><path d="M564.07 760.97L649.72 756.31" stroke="hsl(79.5, 20.2%, 46.6%)" stroke-width="1.5"></path><path d="M536.74 836.59L536.74 836.59" stroke="hsl(79.5, 20.2%, 46.6%)" stroke-width="1.5"></path><path d="M626.69 -34.35L626.69 -34.35" stroke="hsl(79.5, 20.2%, 46.6%)" stroke-width="1.5"></path><path d="M626.69 -34.35L649.35 48.22" stroke="hsl(79.5, 20.2%, 46.6%)" stroke-width="1.5"></path><path d="M626.69 -34.35L568.3 132.51" stroke="hsl(79.5, 20.2%, 46.6%)" stroke-width="1.5"></path><path d="M649.35 48.22L649.35 48.22" stroke="hsl(79.5, 20.2%, 46.6%)" stroke-width="1.5"></path><path d="M649.35 48.22L644.13 160.93" stroke="hsl(79.5, 20.2%, 46.6%)" stroke-width="1.5"></path><path d="M644.13 160.93L644.13 160.93" stroke="hsl(79.5, 20.2%, 46.6%)" stroke-width="1.5"></path><path d="M644.13 160.93L655.84 244.39" stroke="hsl(79.5, 20.2%, 46.6%)" stroke-width="1.5"></path><path d="M644.13 160.93L468.57 158.7" stroke="hsl(79.5, 20.2%, 46.6%)" stroke-width="1.5"></path><path d="M644.13 160.93L629.9 345.91" stroke="hsl(79.5, 20.2%, 46.6%)" stroke-width="1.5"></path><path d="M644.13 160.93L626.69 -34.35" stroke="hsl(79.5, 20.2%, 46.6%)" stroke-width="1.5"></path><path d="M655.84 244.39L655.84 244.39" stroke="hsl(79.5, 20.2%, 46.6%)" stroke-width="1.5"></path><path d="M655.84 244.39L629.9 345.91" stroke="hsl(79.5, 20.2%, 46.6%)" stroke-width="1.5"></path><path d="M629.9 345.91L629.9 345.91" stroke="hsl(79.5, 20.2%, 46.6%)" stroke-width="1.5"></path><path d="M629.9 345.91L656.18 465.76" stroke="hsl(79.5, 20.2%, 46.6%)" stroke-width="1.5"></path><path d="M656.18 465.76L656.18 465.76" stroke="hsl(79.5, 20.2%, 46.6%)" stroke-width="1.5"></path><path d="M656.18 465.76L656.19 541.73" stroke="hsl(79.5, 20.2%, 46.6%)" stroke-width="1.5"></path><path d="M656.18 465.76L560.93 536.23" stroke="hsl(79.5, 20.2%, 46.6%)" stroke-width="1.5"></path><path d="M656.19 541.73L656.19 541.73" stroke="hsl(79.5, 20.2%, 46.6%)" stroke-width="1.5"></path><path d="M652.59 647.03L652.59 647.03" stroke="hsl(79.5, 20.2%, 46.6%)" stroke-width="1.5"></path><path d="M652.59 647.03L656.19 541.73" stroke="hsl(79.5, 20.2%, 46.6%)" stroke-width="1.5"></path><path d="M652.59 647.03L649.72 756.31" stroke="hsl(79.5, 20.2%, 46.6%)" stroke-width="1.5"></path><path d="M649.72 756.31L649.72 756.31" stroke="hsl(79.5, 20.2%, 46.6%)" stroke-width="1.5"></path><path d="M649.72 756.31L651.93 852.02" stroke="hsl(79.5, 20.2%, 46.6%)" stroke-width="1.5"></path><path d="M651.93 852.02L651.93 852.02" stroke="hsl(79.5, 20.2%, 46.6%)" stroke-width="1.5"></path><path d="M651.93 852.02L536.74 836.59" stroke="hsl(79.5, 20.2%, 46.6%)" stroke-width="1.5"></path><path d="M651.93 852.02L564.07 760.97" stroke="hsl(79.5, 20.2%, 46.6%)" stroke-width="1.5"></path><path d="M651.93 852.02L454.19 825.88" stroke="hsl(79.5, 20.2%, 46.6%)" stroke-width="1.5"></path><circle r="25" cx="264.81" cy="654.08" fill="url(#SvgjsRadialGradient1148)"></circle><circle r="25" cx="235.2" cy="763.26" fill="url(#SvgjsRadialGradient1148)"></circle><circle r="25" cx="345.07" cy="527.34" fill="url(#SvgjsRadialGradient1148)"></circle><circle r="25" cx="450.24" cy="227.45" fill="url(#SvgjsRadialGradient1148)"></circle><circle r="25" cx="428.59" cy="328.36" fill="url(#SvgjsRadialGradient1148)"></circle><circle r="25" cx="463.47" cy="458.04" fill="url(#SvgjsRadialGradient1148)"></circle><circle r="25" cx="426.73" cy="573.3" fill="url(#SvgjsRadialGradient1148)"></circle><circle r="25" cx="557.24" cy="-71.72" fill="url(#SvgjsRadialGradient1148)"></circle><circle r="25" cx="537.47" cy="440.6" fill="url(#SvgjsRadialGradient1148)"></circle><circle r="5" cx="-47.94" cy="644.4" fill="#b1b7a4"></circle><circle r="5" cx="-39.12" cy="752.71" fill="#b1b7a4"></circle><circle r="5" cx="-34.52" cy="861.19" fill="#b1b7a4"></circle><circle r="5" cx="74.18" cy="640.11" fill="#b1b7a4"></circle><circle r="5" cx="62.91" cy="768.6" fill="#b1b7a4"></circle><circle r="5" cx="49.98" cy="869.94" fill="#b1b7a4"></circle><circle r="5" cx="140.56" cy="673.81" fill="#b1b7a4"></circle><circle r="5" cx="152.66" cy="760.86" fill="#b1b7a4"></circle><circle r="5" cx="171.27" cy="846.09" fill="#b1b7a4"></circle><circle r="5" cx="228.19" cy="868.38" fill="#b1b7a4"></circle><circle r="5" cx="331.39" cy="463.93" fill="#b1b7a4"></circle><circle r="5" cx="332.61" cy="670.95" fill="#b1b7a4"></circle><circle r="5" cx="366.98" cy="758.96" fill="#b1b7a4"></circle><circle r="5" cx="341.55" cy="849.72" fill="#b1b7a4"></circle><circle r="5" cx="468.57" cy="158.7" fill="#b1b7a4"></circle><circle r="5" cx="443.79" cy="640.64" fill="#b1b7a4"></circle><circle r="5" cx="460.88" cy="749.41" fill="#b1b7a4"></circle><circle r="5" cx="454.19" cy="825.88" fill="#b1b7a4"></circle><circle r="5" cx="568.3" cy="132.51" fill="#b1b7a4"></circle><circle r="5" cx="551.25" cy="344.4" fill="#b1b7a4"></circle><circle r="5" cx="560.93" cy="536.23" fill="#b1b7a4"></circle><circle r="5" cx="558.03" cy="640.43" fill="#b1b7a4"></circle><circle r="5" cx="564.07" cy="760.97" fill="#b1b7a4"></circle><circle r="5" cx="536.74" cy="836.59" fill="#b1b7a4"></circle><circle r="5" cx="626.69" cy="-34.35" fill="#b1b7a4"></circle><circle r="5" cx="649.35" cy="48.22" fill="#b1b7a4"></circle><circle r="5" cx="644.13" cy="160.93" fill="#b1b7a4"></circle><circle r="5" cx="655.84" cy="244.39" fill="#b1b7a4"></circle><circle r="5" cx="629.9" cy="345.91" fill="#b1b7a4"></circle><circle r="5" cx="656.18" cy="465.76" fill="#b1b7a4"></circle><circle r="5" cx="656.19" cy="541.73" fill="#b1b7a4"></circle><circle r="5" cx="652.59" cy="647.03" fill="#b1b7a4"></circle><circle r="5" cx="649.72" cy="756.31" fill="#b1b7a4"></circle><circle r="5" cx="651.93" cy="852.02" fill="#b1b7a4"></circle></g><defs><mask id="SvgjsMask1147"><rect width="600" height="800" fill="#ffffff"></rect></mask><radialGradient id="SvgjsRadialGradient1148"><stop stop-color="#ffffff" offset="0.1"></stop><stop stop-color="rgba(98, 110, 73, 1)" offset="0.2"></stop><stop stop-color="rgba(98, 110, 73, 0)" offset="1"></stop></radialGradient></defs></svg>