<svg xmlns="http://www.w3.org/2000/svg" viewBox="0 0 400 300" width="0" height="0" class="illustration styles_illustrationTablet__1DWOa"><g id="_151_step_1_flatline" data-name="#151_step_1_flatline"><path d="M342.52,216.77h-285a.5.5,0,0,1-.5-.5.5.5,0,0,1,.5-.5h285a.5.5,0,0,1,.5.5A.5.5,0,0,1,342.52,216.77Z" fill="#d1d3d4"></path><rect x="94.72" y="185.07" width="57.24" height="37.8" fill="#fff"></rect><path d="M152,223.37H94.72a.5.5,0,0,1-.5-.5v-37.8a.5.5,0,0,1,.5-.5H152a.5.5,0,0,1,.5.5v37.8A.5.5,0,0,1,152,223.37Zm-56.74-1h56.24v-36.8H95.22Z" fill="#231f20"></path><rect x="171.38" y="152.7" width="57.24" height="70.16" fill="#fff"></rect><path d="M228.62,223.37H171.38a.5.5,0,0,1-.5-.5V152.71a.5.5,0,0,1,.5-.5h57.24a.5.5,0,0,1,.5.5v70.16A.5.5,0,0,1,228.62,223.37Zm-56.74-1h56.24V153.21H171.88Z" fill="#d1d3d4"></path><rect x="248.04" y="127.77" width="57.24" height="95.1" fill="#fff"></rect><path d="M305.28,223.37H248a.5.5,0,0,1-.5-.5v-95.1a.51.51,0,0,1,.5-.5h57.24a.5.5,0,0,1,.5.5v95.1A.5.5,0,0,1,305.28,223.37Zm-56.74-1h56.24v-94.1H248.54Z" fill="#d1d3d4"></path><path d="M330.14,193.14a5.06,5.06,0,0,0-.58-2.71c-.36-.61-.92-1.09-1.22-1.72-.51-1.11-.15-2.41-.27-3.62a4.55,4.55,0,0,0-1.27-2.69c-.64-.64-1.46-1.08-2.06-1.75-1-1.1-1.28-2.64-1.84-4a10,10,0,0,0-4-4.67c1.08,2.18-1.38,4.95-.27,7.11.36.68,1,1.18,1.29,1.91.63,1.75-1.46,3.65-.79,5.39.33.86,1.26,1.36,1.7,2.19.58,1.11.12,2.45.17,3.71a6.82,6.82,0,0,0,2.36,4.46c.78.75,1.65,1.4,2.49,2.07,1,.8,1.43,1.65,2.31.36A11.22,11.22,0,0,0,330.14,193.14Z" fill="#231f20"></path><path d="M331.26,194.13a6.49,6.49,0,0,1,0-4c.62-1.43,2.15-2.44,2.33-4,.12-1-.39-2-.19-3a5.62,5.62,0,0,1,1.69-2.41,10.1,10.1,0,0,0,2.61-6.18,15.43,15.43,0,0,1,2.48,4.11,5.28,5.28,0,0,1-.36,4.64,4.19,4.19,0,0,0-.63,1c-.3,1,.54,1.9,1,2.83a3.26,3.26,0,0,1-.31,3.35c-.88,1.1-2.59,1.53-3,2.88a6.38,6.38,0,0,0-.15,1.52,4.46,4.46,0,0,1-3.22,3.83c-1,.26-1-.16-1.21-1C332,196.45,331.54,195.31,331.26,194.13Z" fill="#231f20"></path><path d="M327.93,184.52c-.74-2.57-1-5.25-1.82-7.81a41.6,41.6,0,0,0-2.43-5.82l3.19,1.34a4.7,4.7,0,0,1,2.61,1.94c.83,1.74-.67,4,.21,5.68a13.74,13.74,0,0,0,1.26,1.59,5.22,5.22,0,0,1,.28,4.66c-.22.66-1.19,4.06-2.05,3.12-.34-.38-.37-1.79-.52-2.31C328.44,186.11,328.16,185.32,327.93,184.52Z" fill="#231f20"></path><path d="M329.45,218.67c-.63-4.2-2.62-19-2.64-19.14l1-.14c0,.15,2,14.94,2.64,19.13Z" fill="#231f20"></path><path d="M330.65,222.6h-1c0-5,2.15-24.16,3.37-25.49l.74.66C332.9,198.93,330.69,216.56,330.65,222.6Z" fill="#231f20"></path><path d="M331.73,221.66l-1,0c.47-10.73-1.81-33.28-1.83-33.51l1-.1C329.92,188.24,332.2,210.86,331.73,221.66Z" fill="#231f20"></path><path d="M324.22,206.61h11.86l-.83,13.47a4.18,4.18,0,0,1-4,4.13H329a4.17,4.17,0,0,1-3.95-4.13Z" fill="#fff"></path><path d="M331.29,224.73H329a4.71,4.71,0,0,1-4.47-4.62l-.83-13.47a.49.49,0,0,1,.14-.38.5.5,0,0,1,.38-.17h11.86a.5.5,0,0,1,.37.17.49.49,0,0,1,.14.38l-.83,13.47A4.71,4.71,0,0,1,331.29,224.73Zm-6.52-17.6.79,12.91A3.69,3.69,0,0,0,329,223.7h2.29a3.69,3.69,0,0,0,3.44-3.66l.8-12.91Z" fill="#231f20"></path><path d="M99.23,149.77s30.92-3.35,33.78,2.37c2.37,4.74,1.47,23.39,1.47,23.39l-10,1.57s-1.5-16-2.91-17.15-31.43,2.88-31.43,2.88L77.33,219,64,217l7.9-65.24Z" fill="#231f20"></path><path d="M77.33,219.5h-.07l-13.32-2a.5.5,0,0,1-.42-.56l7.89-65.24a.49.49,0,0,1,.46-.43l27.32-2c3.24-.35,31.34-3.2,34.27,2.65,2.39,4.79,1.55,22.86,1.52,23.63a.5.5,0,0,1-.42.47l-10,1.58a.52.52,0,0,1-.38-.1.49.49,0,0,1-.19-.35c-.72-7.7-1.93-16.1-2.72-16.81-1.37-.63-19.42,1.45-30.71,2.94L77.82,219.11A.51.51,0,0,1,77.33,219.5Zm-12.77-2.95L77,218.44l12.67-55.72a.49.49,0,0,1,.42-.38c7.08-.94,30.32-3.92,31.79-2.78s2.64,12.64,3,17L134,175.1c.11-2.74.66-18.55-1.43-22.74-2.22-4.43-24.78-3-33.28-2.09h0L72.35,152.2Zm34.67-66.78h0Z" fill="#231f20"></path><path d="M124.44,177.1v7.62h21.49a45,45,0,0,0-11.45-9.19Z" fill="#fff"></path><path d="M145.93,185.22H124.44a.5.5,0,0,1-.5-.5V177.1a.49.49,0,0,1,.42-.49l10-1.58a.54.54,0,0,1,.31.05,45,45,0,0,1,11.59,9.31.5.5,0,0,1-.37.83Zm-21-1h19.85a43.59,43.59,0,0,0-10.39-8.17l-9.46,1.48Z" fill="#231f20"></path><path d="M64,217l-.7,7.38s25.32,3.27,25.12,1.12S77.33,219,77.33,219Z" fill="#fff"></path><path d="M84.38,226.68c-6.51,0-18.2-1.46-21.13-1.83a.52.52,0,0,1-.44-.55l.7-7.37a.48.48,0,0,1,.19-.35.48.48,0,0,1,.38-.1l13.33,2,.11,0c2.62,1.05,11.19,4.62,11.41,6.9a.81.81,0,0,1-.25.64C88.22,226.51,86.6,226.68,84.38,226.68Zm-20.52-2.76c10.91,1.39,22.59,2.3,24,1.48-.44-1.2-5.78-4-10.7-5.92l-12.74-1.93Z" fill="#231f20"></path><path d="M56.9,130.62S47.78,143.11,48.4,145c1,3.15,20.9,21.53,20.9,21.53s5.26,1.91,5.74-.69-4.67-7.43-4.67-7.43l.31-3.52s-3.22,1.53-3.83,1.38-8.52-11.9-8.52-11.9l7.3-9.7" fill="#fff"></path><path d="M72.75,167.72a12.35,12.35,0,0,1-3.62-.71.62.62,0,0,1-.17-.11c-2-1.89-20-18.55-21-21.74-.66-2,6.39-11.86,8.56-14.83a.49.49,0,0,1,.7-.11.5.5,0,0,1,.11.7c-4.29,5.88-8.74,12.88-8.42,13.93C49.7,147.32,64,161,69.57,166.1c1,.34,3.41,1,4.49.36a1,1,0,0,0,.48-.7c.35-1.91-3.13-5.68-4.51-7a.46.46,0,0,1-.15-.4l.23-2.66c-1.37.61-2.84,1.18-3.38,1-.22,0-.8-.2-8.82-12.1a.5.5,0,0,1,0-.58l7.3-9.7a.5.5,0,1,1,.8.6l-7.09,9.42c2.82,4.18,7.27,10.6,8.09,11.39a19.18,19.18,0,0,0,3.44-1.34.48.48,0,0,1,.5,0,.52.52,0,0,1,.21.45l-.29,3.28c1,1,5.11,5.13,4.64,7.72a2,2,0,0,1-1,1.39A3.74,3.74,0,0,1,72.75,167.72Z" fill="#231f20"></path><path d="M113.15,114l7.76,4,1.84-19.44s-2.1-2-2.14-3.46c-.12-3.48,2.14-3.06,2.14-3.06s0-6.63.82-6.86c1.68-.46,1.75,3.27,1.68,7.1,0,0,4-.77,3.82,1.06S126.89,98,126.89,98s3.06,31.09-.85,30.33-16.84-6.28-16.84-6.28" fill="#fff"></path><path d="M126.18,128.84l-.23,0c-3.91-.77-16.42-6.09-17-6.31a.5.5,0,0,1-.26-.66.5.5,0,0,1,.65-.26c.13,0,12.94,5.5,16.75,6.25a.21.21,0,0,0,.2-.07c2-1.81,1.08-19.19,0-29.72a.52.52,0,0,1,.09-.34s2-2.74,2.09-4.42a.38.38,0,0,0-.12-.36c-.49-.44-2.11-.36-3.11-.17a.5.5,0,0,1-.42-.11.49.49,0,0,1-.17-.39c0-1.77.11-5.91-.74-6.57a.29.29,0,0,0-.23-.06c-.35.59-.55,3.73-.53,6.4a.49.49,0,0,1-.59.49,1.21,1.21,0,0,0-.93.29,2.84,2.84,0,0,0-.62,2.27c0,1,1.45,2.59,2,3.11a.53.53,0,0,1,.15.41L121.41,118a.51.51,0,0,1-.26.39.49.49,0,0,1-.47,0l-7.75-4a.49.49,0,0,1-.22-.67.49.49,0,0,1,.67-.22l7.1,3.64,1.75-18.47c-.55-.56-2.08-2.25-2.12-3.63a3.69,3.69,0,0,1,1-3.07,2.21,2.21,0,0,1,1.16-.51c0-6.52.86-6.76,1.19-6.85a1.32,1.32,0,0,1,1.19.22c1,.77,1.18,3.07,1.13,6.78.91-.11,2.57-.2,3.35.51a1.37,1.37,0,0,1,.46,1.19c-.15,1.71-1.73,4.12-2.17,4.76.35,3.59,2.57,27.67-.39,30.37A1.23,1.23,0,0,1,126.18,128.84Z" fill="#231f20"></path><path d="M71,112c-8.37,5.45-16.85,20.12-16.85,20.12l12,6.56L73.44,129,71,153l34.59-3.79-4.27-28.68,9.6,3.62,3.77-11s-8.67-4.8-16.64-4.8S79.36,106.56,71,112Z" fill="#626E49"></path><path d="M95.93,87.57a6.43,6.43,0,0,0-.07-4.67,6.14,6.14,0,0,0-3.35-3.1,9.8,9.8,0,0,0-4.59-.57,11.35,11.35,0,0,0-6.81,3A8.19,8.19,0,0,0,78.59,89a3.23,3.23,0,0,0-3,1.07c-2.2,2.22-2,6-.57,8.74a7.11,7.11,0,0,0,1.89,2.39,7.46,7.46,0,0,0,2.53,1.2c4.09,1.16,9-.1,11.28-3.71,1.21-1.95.88-4.44,2-6.29S95.25,89.58,95.93,87.57Z" fill="#fff"></path><path d="M82.51,103.33a12,12,0,0,1-3.2-.43,7.89,7.89,0,0,1-2.7-1.28,7.71,7.71,0,0,1-2-2.56c-1.43-2.72-1.84-6.8.66-9.33A4.13,4.13,0,0,1,78,88.45h0a8.84,8.84,0,0,1,2.73-6.62,11.71,11.71,0,0,1,7.11-3.1,10.29,10.29,0,0,1,4.83.61,6.67,6.67,0,0,1,3.62,3.35,6.92,6.92,0,0,1,.09,5,10.23,10.23,0,0,1-2,3.18,14,14,0,0,0-1.31,1.77,8.65,8.65,0,0,0-.86,2.84A9.51,9.51,0,0,1,91.14,99,10,10,0,0,1,82.51,103.33ZM78,89.45a3.11,3.11,0,0,0-2.06,1c-2.14,2.17-1.75,5.75-.48,8.15a6.67,6.67,0,0,0,1.76,2.24,6.91,6.91,0,0,0,2.36,1.1c4.14,1.18,8.75-.32,10.71-3.49a8.62,8.62,0,0,0,1-3.1,9.58,9.58,0,0,1,1-3.17,15.5,15.5,0,0,1,1.39-1.9,9.2,9.2,0,0,0,1.81-2.87h0a6,6,0,0,0,0-4.3,5.68,5.68,0,0,0-3.09-2.83A9.23,9.23,0,0,0,88,79.73a10.75,10.75,0,0,0-6.5,2.81A7.69,7.69,0,0,0,79.08,89a.48.48,0,0,1-.16.44.49.49,0,0,1-.46.11A1.8,1.8,0,0,0,78,89.45Z" fill="#231f20"></path><path d="M90.72,105.72l1.15,5.66s-.2,2.74-4.17,2.63-5.09-2.59-5.09-2.59l-1.77-10.64s2-2.11-.09-8A31.77,31.77,0,0,0,92.43,91.4a92,92,0,0,1,1.71,9.89C94.31,104.31,90.72,105.72,90.72,105.72Z" fill="#fff"></path><path d="M87.92,114.52h-.24c-4.23-.11-5.47-2.77-5.52-2.88a.56.56,0,0,1,0-.12l-1.78-10.65a.51.51,0,0,1,.14-.42s1.76-2-.2-7.51a.49.49,0,0,1,.07-.47.52.52,0,0,1,.44-.2,31.58,31.58,0,0,0,11.47-1.33.53.53,0,0,1,.41,0,.51.51,0,0,1,.24.32,88.6,88.6,0,0,1,1.73,10c.15,2.75-2.36,4.26-3.35,4.75l1.07,5.27a.33.33,0,0,1,0,.14S92.09,114.52,87.92,114.52Zm-4.83-3.25c.18.33,1.3,2.15,4.62,2.24s3.6-1.74,3.66-2.11l-1.14-5.58a.51.51,0,0,1,.3-.57s3.26-1.31,3.11-3.93a83.88,83.88,0,0,0-1.58-9.26,32.23,32.23,0,0,1-10.6,1.25c1.5,4.68.37,6.94-.09,7.6Z" fill="#231f20"></path><path d="M81.64,100.1a3,3,0,0,0-3.09-1.51,1.83,1.83,0,0,0-1.38,1,2.88,2.88,0,0,0,.58,2.64A3.06,3.06,0,0,0,82,103" fill="#fff"></path><path d="M80.24,104a3.69,3.69,0,0,1-.58,0,3.6,3.6,0,0,1-2.32-1.46,3.43,3.43,0,0,1-.63-3.14,2.37,2.37,0,0,1,1.76-1.29,3.5,3.5,0,0,1,3.62,1.78.5.5,0,1,1-.9.44,2.49,2.49,0,0,0-2.55-1.24,1.35,1.35,0,0,0-1,.72,2.47,2.47,0,0,0,.52,2.15,2.61,2.61,0,0,0,1.67,1,2.64,2.64,0,0,0,1.93-.45.5.5,0,0,1,.69.11.49.49,0,0,1-.11.7A3.59,3.59,0,0,1,80.24,104Z" fill="#231f20"></path><path d="M88.09,100.61h0a.5.5,0,0,1-.49-.51.49.49,0,0,1,.5-.49h0a2.34,2.34,0,0,0,1.23-.3,10.73,10.73,0,0,0-2.21-2.51.5.5,0,0,1,0-.71.49.49,0,0,1,.7,0c3,2.7,2.59,3.43,2.46,3.67C89.8,100.56,88.42,100.61,88.09,100.61Zm1.24-1.24h0Z" fill="#231f20"></path><path d="M90.72,105.72s-3,.53-4.48,0a7.1,7.1,0,0,0,5.12,3.44Z" fill="#231f20"></path><path d="M91.36,109.63h0a7.52,7.52,0,0,1-5.51-3.69.5.5,0,0,1,.06-.57.49.49,0,0,1,.55-.14,10.61,10.61,0,0,0,4.21,0,.5.5,0,0,1,.58.4l.64,3.41a.51.51,0,0,1-.12.43A.49.49,0,0,1,91.36,109.63Zm-4-3.21a6.31,6.31,0,0,0,3.36,2.12l-.42-2.26A14.29,14.29,0,0,1,87.38,106.42Z" fill="#231f20"></path><ellipse cx="84.71" cy="95.15" rx="0.45" ry="0.74" transform="translate(-5.88 5.58) rotate(-3.65)" fill="#231f20"></ellipse><ellipse cx="89.65" cy="94.77" rx="0.45" ry="0.74" transform="translate(-5.85 5.9) rotate(-3.65)" fill="#231f20"></ellipse><path d="M84.71,101.45s2.43,2.83,6,0" fill="#fff"></path><path d="M87.57,103.21a4.63,4.63,0,0,1-3.24-1.43.51.51,0,0,1,0-.71.49.49,0,0,1,.7.05h0c.09.1,2.19,2.42,5.27-.06a.5.5,0,1,1,.63.78A5.44,5.44,0,0,1,87.57,103.21Z" fill="#231f20"></path><path d="M73.44,129.47h0a.49.49,0,0,1-.47-.52l.49-9.5A.49.49,0,0,1,74,119a.5.5,0,0,1,.48.53L73.94,129A.51.51,0,0,1,73.44,129.47Z" fill="#231f20"></path><path d="M122.75,92s3-.31,3,.61c0,1.92-2.14,1.45-2.14,1.45s1.44,1.15.65,2.11" fill="#fff"></path><path d="M124.24,96.7a.5.5,0,0,1-.32-.11.5.5,0,0,1-.07-.7.46.46,0,0,0,.12-.38,2,2,0,0,0-.69-1,.49.49,0,0,1-.14-.6.52.52,0,0,1,.56-.28,1.74,1.74,0,0,0,1.26-.18.94.94,0,0,0,.27-.77,6.25,6.25,0,0,0-2.43-.12.51.51,0,0,1-.55-.45.5.5,0,0,1,.45-.55c.57-.06,2.49-.2,3.21.43a1,1,0,0,1,.32.68,1.85,1.85,0,0,1-.64,1.55,2,2,0,0,1-.91.41,2,2,0,0,1,.29.81,1.51,1.51,0,0,1-.34,1.11A.5.5,0,0,1,124.24,96.7Z" fill="#231f20"></path><path d="M122,197l-6.65,3.21v-4.88l7-3.37h5.34v22H122Z" fill="#231f20"></path></g></svg>