<svg xmlns="http://www.w3.org/2000/svg" viewBox="0 0 400 300" width="406" height="306" class="illustration styles_illustrationTablet__1DWOa"><g id="_153_step_3_flatline" data-name="#153_step_3_flatline"><path d="M342.52,216.77h-285a.5.5,0,0,1-.5-.5.5.5,0,0,1,.5-.5h285a.5.5,0,0,1,.5.5A.5.5,0,0,1,342.52,216.77Z" fill="#d1d3d4"></path><rect x="94.72" y="187.33" width="57.24" height="37.8" fill="#fff"></rect><path d="M152,225.63H94.72a.5.5,0,0,1-.5-.5v-37.8a.5.5,0,0,1,.5-.5H152a.51.51,0,0,1,.5.5v37.8A.5.5,0,0,1,152,225.63Zm-56.74-1h56.24v-36.8H95.22Z" fill="#d1d3d4"></path><rect x="171.38" y="154.97" width="57.24" height="70.16" fill="#fff"></rect><path d="M228.62,225.63H171.38a.5.5,0,0,1-.5-.5V155a.5.5,0,0,1,.5-.5h57.24a.5.5,0,0,1,.5.5v70.16A.5.5,0,0,1,228.62,225.63Zm-56.74-1h56.24V155.47H171.88Z" fill="#d1d3d4"></path><rect x="248.04" y="130.04" width="57.24" height="95.1" fill="#fff"></rect><path d="M305.28,225.63H248a.5.5,0,0,1-.5-.5V130a.5.5,0,0,1,.5-.5h57.24a.5.5,0,0,1,.5.5v95.09A.5.5,0,0,1,305.28,225.63Zm-56.74-1h56.24V130.54H248.54Z" fill="#231f20"></path><path d="M330.14,195.41a5.09,5.09,0,0,0-.58-2.72,20.58,20.58,0,0,1-1.22-1.72c-.51-1.1-.15-2.4-.27-3.61a4.58,4.58,0,0,0-1.27-2.7c-.64-.64-1.46-1.08-2.06-1.75-1-1.09-1.28-2.64-1.84-4a10,10,0,0,0-4-4.67c1.08,2.17-1.38,4.94-.27,7.1.36.69,1,1.19,1.29,1.91.63,1.76-1.46,3.65-.79,5.39.33.87,1.26,1.37,1.7,2.19.58,1.11.12,2.46.17,3.71a6.84,6.84,0,0,0,2.36,4.47c.78.74,1.65,1.39,2.49,2.06,1,.81,1.43,1.65,2.31.36A11.16,11.16,0,0,0,330.14,195.41Z" fill="#231f20"></path><path d="M331.26,196.4a6.52,6.52,0,0,1,0-4.05c.62-1.43,2.15-2.44,2.33-4,.12-1-.39-2-.19-3a5.65,5.65,0,0,1,1.69-2.42,10.08,10.08,0,0,0,2.61-6.18,15.43,15.43,0,0,1,2.48,4.11,5.28,5.28,0,0,1-.36,4.64,4.38,4.38,0,0,0-.63,1c-.3,1,.54,1.9,1,2.84a3.26,3.26,0,0,1-.31,3.35c-.88,1.1-2.59,1.53-3,2.87a6.43,6.43,0,0,0-.15,1.52,4.47,4.47,0,0,1-3.22,3.84c-1,.25-1-.16-1.21-1C332,198.72,331.54,197.58,331.26,196.4Z" fill="#231f20"></path><path d="M327.93,186.78c-.74-2.57-1-5.25-1.82-7.8a41.22,41.22,0,0,0-2.43-5.83l3.19,1.35a4.73,4.73,0,0,1,2.61,1.93c.83,1.74-.67,4,.21,5.69A14.54,14.54,0,0,0,331,183.7a5.22,5.22,0,0,1,.28,4.66c-.22.66-1.19,4.07-2.05,3.12-.34-.38-.37-1.79-.52-2.31C328.44,188.37,328.16,187.58,327.93,186.78Z" fill="#231f20"></path><path d="M329.45,220.94c-.63-4.2-2.62-19-2.64-19.15l1-.13c0,.15,2,14.94,2.64,19.13Z" fill="#231f20"></path><path d="M330.65,224.87h-1c0-5,2.15-24.16,3.37-25.49l.74.67C332.9,201.19,330.69,218.83,330.65,224.87Z" fill="#231f20"></path><path d="M331.73,223.93l-1-.05c.47-10.73-1.81-33.28-1.83-33.51l1-.1C329.92,190.5,332.2,213.12,331.73,223.93Z" fill="#231f20"></path><path d="M324.22,208.87h11.86l-.83,13.47a4.19,4.19,0,0,1-4,4.14H329a4.18,4.18,0,0,1-3.95-4.14Z" fill="#fff"></path><path d="M331.29,227H329a4.71,4.71,0,0,1-4.47-4.62l-.83-13.46a.5.5,0,0,1,.14-.39.55.55,0,0,1,.38-.16h11.86a.52.52,0,0,1,.37.16.5.5,0,0,1,.14.39l-.83,13.46A4.71,4.71,0,0,1,331.29,227Zm-6.52-17.6.79,12.92A3.68,3.68,0,0,0,329,226h2.29a3.68,3.68,0,0,0,3.44-3.65l.8-12.92Z" fill="#231f20"></path><path d="M260.1,125.58c-.88,0-7.46.72-10.54,2.25s-3.75,1.65-3.12,3.72,6,2.57,10.17,1.79a27.59,27.59,0,0,0,7.61-2.77Z" fill="#fff"></path><path d="M252.73,134.15c-3.15,0-6.2-.69-6.73-2.47-.68-2.28.16-2.69,2.66-3.92l.7-.34c3.12-1.55,9.62-2.29,10.71-2.29h0a.44.44,0,0,1,.34.16l4.13,5a.45.45,0,0,1,.09.37.43.43,0,0,1-.22.32,28.25,28.25,0,0,1-7.75,2.82A21.78,21.78,0,0,1,252.73,134.15Zm7.16-8.1c-1.41.06-7.32.79-10.13,2.19l-.7.34c-2.5,1.23-2.65,1.3-2.19,2.83s5.26,2.31,9.66,1.48a27.15,27.15,0,0,0,7-2.46Z" fill="#231f20"></path><path d="M259.22,125.57a2.37,2.37,0,0,0-1.78,2.68c.29,2.19,4.93,2.29,5.19,2.29S259.22,125.57,259.22,125.57Z" fill="#fff"></path><path d="M262.63,131h0c-.88,0-5.31-.23-5.63-2.69a2.8,2.8,0,0,1,2.12-3.19.45.45,0,0,1,.47.18c3.7,5,3.63,5.14,3.47,5.44A.48.48,0,0,1,262.63,131Zm-3.58-4.89a1.85,1.85,0,0,0-1.16,2.08c.16,1.21,2.34,1.71,4,1.85C261.28,129.18,260.15,127.6,259.05,126.11Z" fill="#231f20"></path><path d="M293.58,130.59c.14.07,1.39,1.7,6.89,2.36s7.53,1.84,8.76-1,.38-4.75-2.33-5.57-10.17-1.51-11.63-.13S293.58,130.59,293.58,130.59Z" fill="#fff"></path><path d="M306.53,134.21a19.59,19.59,0,0,1-3-.36c-.88-.14-1.9-.31-3.09-.45-2.31-.27-5.42-.92-7.06-2.41a.43.43,0,0,1-.23-.44c0-.13.26-3.2,1.84-4.68s9.35-.81,12.08,0a4.37,4.37,0,0,1,2.88,2.17,4.9,4.9,0,0,1-.27,4A3,3,0,0,1,306.53,134.21Zm-12.47-3.81c1.18,1,3.41,1.73,6.46,2.1,1.2.14,2.23.31,3.13.45,3.44.56,4.37.63,5.16-1.23a4.08,4.08,0,0,0,.28-3.27,3.47,3.47,0,0,0-2.32-1.69c-3-.91-10-1.36-11.19-.23A7.11,7.11,0,0,0,294.06,130.4Z" fill="#231f20"></path><path d="M291.82,129.41s2.5,2.08,4.16,1.83,4-1.15,3-3-6.88-2.87-6.88-2.87Z" fill="#fff"></path><path d="M295.7,131.72c-1.76,0-3.91-1.75-4.17-2a.48.48,0,0,1-.16-.39l.31-4a.47.47,0,0,1,.17-.33.48.48,0,0,1,.36-.09c.64.12,6.21,1.17,7.21,3.11a1.91,1.91,0,0,1,.07,1.8c-.67,1.31-2.81,1.72-3.44,1.82Zm-3.4-2.52c.78.61,2.52,1.75,3.61,1.59s2.39-.59,2.76-1.32a1,1,0,0,0-.06-1c-.56-1.08-3.82-2.08-6.06-2.53Z" fill="#231f20"></path><path d="M263.76,112.39s.74,9.79,10.34,11.75,14.55,1.44,17.95-5,1.15-10.43,1.15-10.43l-29-.58Z" fill="#231f20"></path><path d="M282,125.65a41.31,41.31,0,0,1-8-1c-9.86-2-10.73-12.1-10.74-12.2a.28.28,0,0,1,0-.09l.46-4.3a.48.48,0,0,1,.5-.45l29,.58a.48.48,0,0,1,.42.25c.1.17,2.35,4.28-1.14,10.91C290.05,124,286.78,125.65,282,125.65Zm-17.78-13.26c.07.79,1.06,9.45,9.94,11.26,9.12,1.86,14.05,1.62,17.41-4.78,2.75-5.24,1.65-8.77,1.27-9.71l-28.21-.56Z" fill="#231f20"></path><path d="M254.8,111.5s-6.23,5.06-4,9.7,42,9.94,42,9.94l1.8-6.07S263.32,109.13,254.8,111.5Z" fill="#231f20"></path><path d="M292.75,131.64h-.06c-4.1-.54-40.11-5.47-42.37-10.22-2.35-4.94,3.9-10.09,4.17-10.3a.4.4,0,0,1,.18-.1c8.61-2.38,38.82,13,40.11,13.62a.5.5,0,0,1,.25.59l-1.8,6.06A.5.5,0,0,1,292.75,131.64ZM255,112c-.7.6-5.7,5.07-3.81,9,1.52,3.2,25.28,7.47,41.17,9.6l1.55-5.25C290.42,123.56,262.94,109.94,255,112Z" fill="#231f20"></path><path d="M296.62,109.17S265.7,121.67,258,125l4.46,6.89s28.55-.55,36.74-7.73S306.87,105,296.62,109.17Z" fill="#231f20"></path><path d="M262.49,132.36a.48.48,0,0,1-.42-.23l-4.46-6.89a.52.52,0,0,1-.06-.42.51.51,0,0,1,.28-.31c7.59-3.26,38.29-15.68,38.6-15.8,3.74-1.52,6.69-1.07,8.11,1.23,2,3.2.44,9.81-5,14.57-8.22,7.21-35.88,7.83-37.05,7.85Zm-3.72-7.16,4,6.16c3-.09,28.61-1,36.14-7.6,5-4.42,6.55-10.44,4.79-13.29-1.15-1.87-3.6-2.17-6.89-.84h0C296.5,109.76,267.16,121.62,258.77,125.2Zm37.85-16h0Z" fill="#231f20"></path><path d="M262.14,123.86a.5.5,0,0,1-.48-.33.51.51,0,0,1,.3-.66c.16-.07,16.55-6.41,20.08-8.58a.52.52,0,0,1,.71.17.51.51,0,0,1-.17.71c-3.61,2.22-19.58,8.4-20.25,8.66A.63.63,0,0,1,262.14,123.86Z" fill="#fff"></path><path d="M307.13,84.18s15.39,6.38,14.83,8.73-14.27,18.35-14.27,18.35-2.06,4.57-4.88,5.36-6.57-1.92-5.26-3.48,4.13-4.68,4.13-4.68-4.16-1.76-2.45-2.13,4.89-1.31,4.89-1.31l5.66-8.26-8.1-4.88" fill="#fff"></path><path d="M301.75,117.26a5.87,5.87,0,0,1-4.6-2.27,1.74,1.74,0,0,1,0-2.17c1-1.17,2.82-3.22,3.68-4.18-2.61-1.19-2.55-1.85-2.53-2.08s.18-.58.8-.72c1.44-.32,4-1.06,4.69-1.25l5.26-7.68-7.65-4.61a.49.49,0,0,1-.17-.68.5.5,0,0,1,.69-.17l8.1,4.88a.5.5,0,0,1,.23.32.49.49,0,0,1-.08.39l-5.65,8.26a.58.58,0,0,1-.28.2c-.12,0-3,.87-4.71,1.27a12.77,12.77,0,0,0,2.32,1.23.54.54,0,0,1,.3.36.51.51,0,0,1-.12.44s-2.82,3.13-4.11,4.66c-.09.1-.33.39.05,1a4.81,4.81,0,0,0,4.68,1.69c2.57-.72,4.54-5,4.56-5.09a.83.83,0,0,1,.08-.12c5.48-6.39,13.77-16.5,14.16-18.14.25-1.05-6.41-4.78-14.53-8.15a.5.5,0,1,1,.38-.92c4.74,2,15.72,6.81,15.12,9.3s-12.72,16.63-14.32,18.51c-.29.6-2.33,4.77-5.18,5.57A4.27,4.27,0,0,1,301.75,117.26Zm-2.54-10.4Z" fill="#231f20"></path><path d="M253.3,78.08l-7.16.88-2.3-17.6s2.76-2.06,2.58-3.3a1.6,1.6,0,0,0-1-1.45s2.24-6.33.31-7.31c-1.07-.53-1.9,6.71-1.9,6.71s.35-6.48-.88-6.7-1.59,6.31-1.59,6.31-.95-6.47-1.55-6.31-.85-.92-1.12,6.57c-4.14.43-.92,6.06-.92,6.06s.19,28.19,1.24,28.25,21.07-3,21.07-3" fill="#fff"></path><path d="M239,90.69h0c-.56,0-1.51-.09-1.71-28.62-.37-.68-1.82-3.54-.89-5.34a2.48,2.48,0,0,1,1.82-1.28c.23-6.23.39-6.61,1.38-6.62h.11a.73.73,0,0,1,.48.09c.35.23.72,1.3,1.1,3.21.25-1.4.61-2.73,1.12-3.13a.81.81,0,0,1,.65-.17c.62.11,1,.94,1.16,2.1a3.64,3.64,0,0,1,1-2.05.73.73,0,0,1,.7,0c2,1,.65,5.79.08,7.5a2.27,2.27,0,0,1,.94,1.62c.19,1.3-1.76,3-2.55,3.6l2.2,16.83,6.67-.82a.5.5,0,1,1,.12,1l-7.16.88a.5.5,0,0,1-.56-.43l-2.3-17.61a.53.53,0,0,1,.2-.47c1.21-.9,2.47-2.24,2.39-2.82-.13-.85-.63-1-.69-1a.52.52,0,0,1-.31-.25.51.51,0,0,1,0-.4c.8-2.27,1.53-5.79.69-6.59-.44.68-1,3.64-1.32,6.22a.5.5,0,0,1-1-.09c.15-2.77,0-5.46-.42-6.09a19.48,19.48,0,0,0-1.05,5.77.51.51,0,0,1-.48.46.48.48,0,0,1-.51-.43,35.45,35.45,0,0,0-1.23-5.86h0a45.13,45.13,0,0,0-.44,6.07.5.5,0,0,1-.45.48,1.7,1.7,0,0,0-1.47.8c-.64,1.24.46,3.67.94,4.51a.5.5,0,0,1,.06.24c.07,9.8.4,25.57,1,27.75,1.93-.17,13.19-1.84,20.72-3a.51.51,0,0,1,.57.42.49.49,0,0,1-.42.57C258.07,88,240.39,90.69,239,90.69Z" fill="#231f20"></path><path d="M309.78,83.62l-4.5,12.76-12.5-4.83,1.77,17.22-32.11,1.38,2.34-21.48-10.67,1.12-2.32-13s19.79-4,27.12-4.13S309.78,83.62,309.78,83.62Z" fill="#626E49"></path><path d="M270.22,53.33a6,6,0,0,1,0-4.29,5.66,5.66,0,0,1,3-2.89,8.89,8.89,0,0,1,4.21-.59,10.41,10.41,0,0,1,6.3,2.61,7.54,7.54,0,0,1,2.42,6.25,3,3,0,0,1,2.77.94c2.05,2,2,5.46.65,8a6.69,6.69,0,0,1-1.71,2.23,6.55,6.55,0,0,1-2.31,1.13c-3.74,1.13-8.3,0-10.41-3.24-1.14-1.77-.88-4.07-1.91-5.75S270.88,55.17,270.22,53.33Z" fill="#fff"></path><path d="M282.62,67.67a9.15,9.15,0,0,1-7.87-3.9,8.89,8.89,0,0,1-1.07-3.17,8.21,8.21,0,0,0-.83-2.59,13.51,13.51,0,0,0-1.22-1.6,9.25,9.25,0,0,1-1.88-2.91,6.45,6.45,0,0,1,0-4.66,6.18,6.18,0,0,1,3.3-3.15,9.36,9.36,0,0,1,4.45-.63,10.79,10.79,0,0,1,6.6,2.75,8.15,8.15,0,0,1,2.62,6A3.86,3.86,0,0,1,289.31,55c2.35,2.3,2,6.08.75,8.61A7,7,0,0,1,288.21,66a7.31,7.31,0,0,1-2.47,1.22A10.7,10.7,0,0,1,282.62,67.67Zm-6-21.65a7.89,7.89,0,0,0-3.12.59,5.13,5.13,0,0,0-2.78,2.63,5.51,5.51,0,0,0,0,3.92h0a8.3,8.3,0,0,0,1.7,2.6,13.07,13.07,0,0,1,1.31,1.73,8.9,8.9,0,0,1,1,2.91,7.88,7.88,0,0,0,.94,2.83c1.84,2.87,6.08,4.17,9.85,3a6.47,6.47,0,0,0,2.14-1,6.06,6.06,0,0,0,1.58-2.06c1.12-2.22,1.43-5.49-.56-7.45a2.55,2.55,0,0,0-2.29-.81.48.48,0,0,1-.46-.1.53.53,0,0,1-.17-.44,7,7,0,0,0-2.26-5.82,9.88,9.88,0,0,0-6-2.49Z" fill="#231f20"></path><path d="M275.28,69.94l-1,5.22s.22,2.52,3.87,2.36,4.64-2.45,4.64-2.45l1.48-9.81s-1.9-1.91,0-7.37a29.3,29.3,0,0,1-10.75-1.08,83.54,83.54,0,0,0-1.43,9.11C272,68.7,275.28,69.94,275.28,69.94Z" fill="#fff"></path><path d="M277.85,78c-3.75,0-4.05-2.79-4.05-2.82a.66.66,0,0,1,0-.14l.91-4.83c-.94-.45-3.24-1.82-3.14-4.34A83.3,83.3,0,0,1,273,56.71a.51.51,0,0,1,.24-.33.54.54,0,0,1,.41-.05,28.81,28.81,0,0,0,10.54,1.06.5.5,0,0,1,.53.66c-1.72,5-.1,6.85-.08,6.87a.5.5,0,0,1,.13.42l-1.48,9.8a.5.5,0,0,1,0,.13c0,.1-1.16,2.58-5.08,2.75Zm-3.05-2.86c.06.34.48,2,3.35,1.85s4-1.78,4.17-2.1l1.44-9.52c-.44-.63-1.49-2.69-.21-7a29.44,29.44,0,0,1-9.67-1,75.21,75.21,0,0,0-1.31,8.49c-.1,2.38,2.85,3.52,2.88,3.53a.51.51,0,0,1,.32.56Z" fill="#231f20"></path><path d="M283.54,64.65a2.74,2.74,0,0,1,2.82-1.43,1.7,1.7,0,0,1,1.28.9,2.68,2.68,0,0,1-.49,2.44,2.85,2.85,0,0,1-1.82,1.18,2.89,2.89,0,0,1-2.12-.46" fill="#fff"></path><path d="M284.83,68.28a3.33,3.33,0,0,1-1.9-.59.5.5,0,0,1-.12-.7.49.49,0,0,1,.69-.12,2.39,2.39,0,0,0,1.74.38,2.36,2.36,0,0,0,1.5-1,2.25,2.25,0,0,0,.45-2,1.21,1.21,0,0,0-.91-.62A2.26,2.26,0,0,0,284,64.86a.5.5,0,0,1-.9-.42,3.26,3.26,0,0,1,3.35-1.72,2.21,2.21,0,0,1,1.65,1.19,3.15,3.15,0,0,1-.53,2.93,3.3,3.3,0,0,1-2.14,1.39A2.88,2.88,0,0,1,284.83,68.28Z" fill="#231f20"></path><path d="M277.57,65.25c-.38,0-1.56-.06-2-.8-.14-.25-.51-.91,2.22-3.46a.5.5,0,0,1,.71,0,.51.51,0,0,1,0,.71,10.35,10.35,0,0,0-2,2.3,2.13,2.13,0,0,0,1.09.23h0a.49.49,0,0,1,.5.49.5.5,0,0,1-.48.51Z" fill="#231f20"></path><path d="M275.28,69.94a10.58,10.58,0,0,0,4.11-.08,6.5,6.5,0,0,1-4.65,3.23Z" fill="#231f20"></path><path d="M274.74,73.59a.52.52,0,0,1-.37-.16.49.49,0,0,1-.12-.42l.54-3.15a.49.49,0,0,1,.57-.41,9.65,9.65,0,0,0,3.85-.06.5.5,0,0,1,.55.14.48.48,0,0,1,.07.56,7,7,0,0,1-5,3.5Zm.95-3.09-.34,2a5.67,5.67,0,0,0,2.91-1.89A14.33,14.33,0,0,1,275.69,70.5Z" fill="#231f20"></path><ellipse cx="280.65" cy="60.14" rx="0.68" ry="0.41" transform="translate(207.06 337.57) rotate(-87.24)" fill="#231f20"></ellipse><ellipse cx="276.1" cy="59.87" rx="0.68" ry="0.41" transform="matrix(0.05, -1, 1, 0.05, 203.01, 332.76)" fill="#231f20"></ellipse><path d="M280.74,65.93s-2.2,2.64-5.48.09" fill="#fff"></path><path d="M278.07,67.63A5,5,0,0,1,275,66.41a.5.5,0,1,1,.61-.79c2.84,2.22,4.71.08,4.79,0a.5.5,0,0,1,.76.64A4.27,4.27,0,0,1,278.07,67.63Z" fill="#231f20"></path><path d="M292.84,95.76a.5.5,0,0,1-.5-.46L291.3,80l1-.07,1,15.29a.5.5,0,0,1-.47.53Z" fill="#231f20"></path><path d="M240.68,60.89a.5.5,0,0,1-.5-.48,2.35,2.35,0,0,1,1.31-2,3.75,3.75,0,0,1-1.85-.72.64.64,0,0,1-.2-.73c.12-.29.38-.9,5.94-.82a.5.5,0,0,1,0,1,36.55,36.55,0,0,0-4.31.15,10.27,10.27,0,0,0,2.51.31.5.5,0,0,1,.12,1c-.66.16-2.54.84-2.5,1.82a.5.5,0,0,1-.48.52Z" fill="#231f20"></path><path d="M267.37,184.31l5.49-.85c.64,3,2.19,4.42,5.85,4.42,2.71,0,4.34-1,4.34-2.92s-1.55-2.85-4.46-2.85h-2.75v-3.63h2.27c2.67,0,4.18-.95,4.18-2.49s-1.55-2.62-4-2.62c-2.74,0-4.54,1.14-5,3.14l-5.53-.78c.75-4,4.85-6.59,10.5-6.59s9.67,2.59,9.67,6.29c0,2-1.27,3.47-3.38,4.39v.07a5.83,5.83,0,0,1,4.14,5.47c0,3.86-4,6.78-10,6.78C272.18,192.14,268,189.22,267.37,184.31Z" fill="#231f20"></path></g></svg>