<svg xmlns="http://www.w3.org/2000/svg" viewBox="0 0 400 300" width="406" height="306" class="illustration styles_illustrationTablet__1DWOa"><g id="_152_step_2_flatline" data-name="#152_step_2_flatline"><path d="M342.52,216.77h-285a.5.5,0,0,1-.5-.5.5.5,0,0,1,.5-.5h285a.5.5,0,0,1,.5.5A.5.5,0,0,1,342.52,216.77Z" fill="#d1d3d4"></path><path d="M210.53,84.62l6.76,2.54,4.22-15.91s-2.2-2.65-1.73-3.81a1.61,1.61,0,0,1,1.36-1.16s-1.35-6,.76-6.51c1.17-.27.93,6.3.93,6.3s1.17-6.39,2.41-6.31.07,6.51.07,6.51,2.4.52,2.12,2a7.91,7.91,0,0,1-2.07,3.17s1,22.06-1.14,26.3c-1.54,3.07-19.4-5.13-19.4-5.13" fill="#fff"></path><path d="M222.33,98.89c-4.6,0-14.29-4.25-17.72-5.83a.5.5,0,0,1,.42-.9c8.38,3.84,17.93,7,18.75,5.35,2-4.07,1.09-25.83,1.08-26.05a.49.49,0,0,1,.16-.38,7.16,7.16,0,0,0,1.91-2.91c.19-1-1.7-1.41-1.72-1.41a.51.51,0,0,1-.39-.57c.44-2.66.57-5.23.32-5.88-.47.44-1.31,3.07-1.82,5.85a.51.51,0,0,1-.55.41.5.5,0,0,1-.44-.52c.09-2.66-.1-5.2-.43-5.76-1,.47-.76,3.72-.27,5.88a.53.53,0,0,1-.1.42.51.51,0,0,1-.39.19s-.58,0-.9.84c-.23.58.81,2.3,1.66,3.31a.51.51,0,0,1,.1.45l-4.23,15.91a.46.46,0,0,1-.25.31.49.49,0,0,1-.41,0l-6.75-2.54a.5.5,0,1,1,.35-.93L217,86.5l4-15.13c-.6-.77-2.14-2.89-1.65-4.12a2.31,2.31,0,0,1,1.24-1.34c-.33-1.7-1-6.11,1.24-6.63a.76.76,0,0,1,.69.17,4.52,4.52,0,0,1,.78,2.66c.53-1.66,1.21-2.91,2-2.85a.77.77,0,0,1,.58.32c.74.92.27,4.65,0,6.32,1,.34,2.29,1.12,2,2.46a7.75,7.75,0,0,1-2,3.28c.1,2.46.87,22.2-1.2,26.32C224.34,98.62,223.5,98.89,222.33,98.89Z" fill="#231f20"></path><path d="M167.5,69.85S150,62.61,149.25,64s-7.15,26.26-7.07,27.44-1.22,5.5.09,6.42,5.58,2.41,6.15.23-.26-7.29-.26-7.29l8.3-17,8.14,3.57" fill="#fff"></path><path d="M146.53,99.7A9.27,9.27,0,0,1,142,98.25c-1.18-.82-.8-3.23-.5-5.16a10.35,10.35,0,0,0,.19-1.63c-.09-1.33,6.3-26.2,7.13-27.72.23-.44.95-1.76,18.88,5.65a.5.5,0,1,1-.38.93c-7.74-3.2-16.35-6.28-17.67-6-.85,2-7,25.79-7,27.09a9.6,9.6,0,0,1-.2,1.84c-.2,1.3-.58,3.73.08,4.19.93.66,3.52,1.61,4.78,1.15a.87.87,0,0,0,.59-.64c.53-2-.26-7-.26-7.08a.52.52,0,0,1,0-.3l8.3-17a.5.5,0,0,1,.65-.24l8.15,3.57a.5.5,0,0,1-.41.92l-7.7-3.38-8,16.43c.13.9.75,5.27.22,7.33a1.88,1.88,0,0,1-1.21,1.33A3.53,3.53,0,0,1,146.53,99.7Z" fill="#231f20"></path><rect x="94.72" y="185.67" width="57.24" height="37.8" fill="#fff"></rect><path d="M152,224H94.72a.5.5,0,0,1-.5-.5v-37.8a.5.5,0,0,1,.5-.5H152a.5.5,0,0,1,.5.5v37.8A.51.51,0,0,1,152,224Zm-56.74-1h56.24v-36.8H95.22Z" fill="#d1d3d4"></path><rect x="171.38" y="153.3" width="57.24" height="70.16" fill="#fff"></rect><path d="M228.62,224H171.38a.5.5,0,0,1-.5-.5V153.3a.5.5,0,0,1,.5-.5h57.24a.5.5,0,0,1,.5.5v70.17A.5.5,0,0,1,228.62,224Zm-56.74-1h56.24V153.8H171.88Z" fill="#231f20"></path><rect x="248.04" y="128.37" width="57.24" height="95.1" fill="#fff"></rect><path d="M305.28,224H248a.51.51,0,0,1-.5-.5v-95.1a.5.5,0,0,1,.5-.5h57.24a.5.5,0,0,1,.5.5v95.1A.5.5,0,0,1,305.28,224Zm-56.74-1h56.24v-94.1H248.54Z" fill="#d1d3d4"></path><path d="M188.56,112.73s28.29,4.11,29.53,9.85c1,4.76-2.77,24.22-2.77,24.22l-8.64-.5s.4-18.09-.61-19.4-28.63-4.64-28.63-4.64L170,141.19l-31.21,17L136.48,149l18.71-13.17,8.59-27.58Z" fill="#231f20"></path><path d="M138.83,158.73a.65.65,0,0,1-.2,0,.5.5,0,0,1-.28-.34L136,149.08a.5.5,0,0,1,.2-.53l18.57-13.07,8.54-27.42a.5.5,0,0,1,.56-.34l24.77,4.52c.3,0,7.29,1.07,14.34,2.78,9.93,2.39,15,4.83,15.59,7.46,1,4.8-2.61,23.62-2.76,24.42a.5.5,0,0,1-.52.4l-8.63-.5a.5.5,0,0,1-.47-.51c.18-8.57.07-18.18-.52-19.09-1.11-.87-17.54-3.14-27.91-4.4l-7.25,18.58a.55.55,0,0,1-.23.25l-31.21,17A.53.53,0,0,1,138.83,158.73Zm-1.78-9.56,2.1,8.31,30.5-16.64L177,122.08a.53.53,0,0,1,.53-.31c8.37,1,27.94,3.5,29,4.83s.82,14.46.72,19.23l7.72.45c.55-2.88,3.6-19.38,2.69-23.59-.95-4.44-21.34-8.34-29.11-9.47h0l-24.34-4.44-8.46,27.16a.51.51,0,0,1-.19.26Z" fill="#231f20"></path><path d="M330.14,193.74a5.09,5.09,0,0,0-.58-2.72,20.58,20.58,0,0,1-1.22-1.72c-.51-1.1-.15-2.4-.27-3.61a4.58,4.58,0,0,0-1.27-2.7c-.64-.64-1.46-1.08-2.06-1.74-1-1.1-1.28-2.64-1.84-4a10,10,0,0,0-4-4.67c1.08,2.18-1.38,5-.27,7.11.36.68,1,1.18,1.29,1.91.63,1.75-1.46,3.64-.79,5.38.33.87,1.26,1.37,1.7,2.19.58,1.11.12,2.46.17,3.71a6.82,6.82,0,0,0,2.36,4.47c.78.75,1.65,1.39,2.49,2.06,1,.81,1.43,1.66,2.31.36A11.16,11.16,0,0,0,330.14,193.74Z" fill="#231f20"></path><path d="M331.26,194.73a6.52,6.52,0,0,1,0-4c.62-1.42,2.15-2.43,2.33-4,.12-1-.39-2-.19-3a5.65,5.65,0,0,1,1.69-2.42,10.07,10.07,0,0,0,2.61-6.17,15.43,15.43,0,0,1,2.48,4.11,5.26,5.26,0,0,1-.36,4.63,4.6,4.6,0,0,0-.63,1c-.3,1,.54,1.91,1,2.84a3.26,3.26,0,0,1-.31,3.35c-.88,1.1-2.59,1.53-3,2.87a6.43,6.43,0,0,0-.15,1.52,4.47,4.47,0,0,1-3.22,3.84c-1,.25-1-.16-1.21-1C332,197.05,331.54,195.91,331.26,194.73Z" fill="#231f20"></path><path d="M327.93,185.12c-.74-2.57-1-5.26-1.82-7.81a41.6,41.6,0,0,0-2.43-5.82l3.19,1.34a4.7,4.7,0,0,1,2.61,1.94c.83,1.73-.67,4,.21,5.68A14.54,14.54,0,0,0,331,182a5.23,5.23,0,0,1,.28,4.67c-.22.65-1.19,4.06-2.05,3.11-.34-.37-.37-1.79-.52-2.3C328.44,186.7,328.16,185.92,327.93,185.12Z" fill="#231f20"></path><path d="M329.45,219.27c-.63-4.2-2.62-19-2.64-19.15l1-.13c0,.15,2,14.94,2.64,19.13Z" fill="#231f20"></path><path d="M330.65,223.2h-1c0-5,2.15-24.15,3.37-25.49l.74.67C332.9,199.52,330.69,217.16,330.65,223.2Z" fill="#231f20"></path><path d="M331.73,222.26l-1,0c.47-10.72-1.81-33.28-1.83-33.5l1-.11C329.92,188.83,332.2,211.46,331.73,222.26Z" fill="#231f20"></path><path d="M324.22,207.21h11.86l-.83,13.46a4.19,4.19,0,0,1-4,4.14H329a4.18,4.18,0,0,1-3.95-4.14Z" fill="#fff"></path><path d="M331.29,225.33H329a4.71,4.71,0,0,1-4.47-4.62l-.83-13.47a.51.51,0,0,1,.52-.55h11.86a.51.51,0,0,1,.51.55l-.83,13.47A4.71,4.71,0,0,1,331.29,225.33Zm-6.52-17.61.79,12.92A3.69,3.69,0,0,0,329,224.3h2.29a3.69,3.69,0,0,0,3.44-3.66l.8-12.92Z" fill="#231f20"></path><path d="M206.68,146.3v7l19.76,0s-5.32-3.48-11.13-6.48Z" fill="#fff"></path><path d="M206.69,153.8a.5.5,0,0,1-.35-.14.49.49,0,0,1-.15-.36v-7a.51.51,0,0,1,.53-.5l8.64.5a.66.66,0,0,1,.2.06c5.77,3,11.12,6.47,11.17,6.5a.5.5,0,0,1-.27.92l-19.76,0Zm.5-7v6l17.54,0c-1.95-1.22-5.65-3.47-9.55-5.48Z" fill="#231f20"></path><path d="M136.48,149,130,151.17s6,19,7.7,18.05,1.09-11,1.09-11Z" fill="#fff"></path><path d="M137.6,169.76a.91.91,0,0,1-.32-.06c-2.06-.81-6.43-14.28-7.72-18.38a.51.51,0,0,1,.32-.63l6.44-2.2a.47.47,0,0,1,.4,0,.54.54,0,0,1,.25.32l2.34,9.27c.17,2.51.52,10.49-1.33,11.54A.76.76,0,0,1,137.6,169.76Zm-6.94-18.28c2.55,8.05,5.75,16.46,6.91,17.24.83-.78,1-5.94.76-10.46l-2.2-8.65Z" fill="#231f20"></path><path d="M161.28,65.75l-4,11.69,13.43,6.38-8,25.33,31.66,4.55L196,91.17l12.13,4.11,4.41-11.5s-18.3-8.54-25.4-10.37S161.28,65.75,161.28,65.75Z" fill="#626E49"></path><path d="M199.88,56.6a6,6,0,0,0,1-4.18,5.67,5.67,0,0,0-2.27-3.52,9.11,9.11,0,0,0-4-1.56,10.34,10.34,0,0,0-6.74,1.07,7.5,7.5,0,0,0-3.81,5.5,3,3,0,0,0-2.92.27c-2.46,1.47-3.17,4.85-2.51,7.65a6.65,6.65,0,0,0,1.14,2.56,7,7,0,0,0,2,1.65c3.37,2,8.06,2,10.89-.72,1.52-1.45,1.8-3.75,3.19-5.14S198.81,58.23,199.88,56.6Z" fill="#fff"></path><path d="M187.05,67.94a11.07,11.07,0,0,1-5.5-1.47,6.44,6.44,0,0,1-3.36-4.53c-.65-2.76-.07-6.5,2.75-8.19a3.75,3.75,0,0,1,2.77-.52,8.2,8.2,0,0,1,4-5.26,10.78,10.78,0,0,1,7.07-1.12,9.4,9.4,0,0,1,4.18,1.65,6.15,6.15,0,0,1,2.46,3.84,6.37,6.37,0,0,1-1.08,4.53,9.39,9.39,0,0,1-2.5,2.39,12.89,12.89,0,0,0-1.56,1.27,7.54,7.54,0,0,0-1.41,2.32,9.06,9.06,0,0,1-1.8,2.83A8.49,8.49,0,0,1,187.05,67.94ZM183,54.14a3.19,3.19,0,0,0-1.54.46c-2.39,1.44-2.86,4.69-2.28,7.11a6,6,0,0,0,1.05,2.37,6.09,6.09,0,0,0,1.83,1.52c3.4,2,7.82,1.72,10.29-.64a8,8,0,0,0,1.58-2.53,8.82,8.82,0,0,1,1.61-2.61,14,14,0,0,1,1.68-1.37,8.47,8.47,0,0,0,2.26-2.13h0a5.51,5.51,0,0,0,.93-3.81,5.2,5.2,0,0,0-2.08-3.21,8.52,8.52,0,0,0-3.74-1.47,9.89,9.89,0,0,0-6.41,1A7.05,7.05,0,0,0,184.6,54a.47.47,0,0,1-.26.39.52.52,0,0,1-.47,0A1.81,1.81,0,0,0,183,54.14Z" fill="#231f20"></path><path d="M191.08,71.56l-.27,5.31s-.81,2.39-4.32,1.38-3.93-3.47-3.93-3.47l.85-9.88s2.3-1.42,1.76-7.16a29.35,29.35,0,0,0,10.71,1.47,84.36,84.36,0,0,1-.74,9.19C194.6,71.13,191.08,71.56,191.08,71.56Z" fill="#fff"></path><path d="M188.08,79a6.26,6.26,0,0,1-1.73-.27c-3.77-1.08-4.27-3.75-4.29-3.87a.48.48,0,0,1,0-.12l.86-9.88a.48.48,0,0,1,.23-.38s2-1.4,1.53-6.69a.5.5,0,0,1,.66-.52,29,29,0,0,0,10.5,1.44.49.49,0,0,1,.38.14.47.47,0,0,1,.16.37,81.76,81.76,0,0,1-.75,9.28c-.49,2.48-3,3.26-4.07,3.48l-.25,4.91a.35.35,0,0,1,0,.14A3.27,3.27,0,0,1,188.08,79Zm-5-4.25c.09.34.67,2.19,3.56,3,2.73.78,3.55-.69,3.69-1l.27-5.23a.5.5,0,0,1,.44-.47s3.17-.42,3.63-2.76a74,74,0,0,0,.71-8.55,29.88,29.88,0,0,1-9.63-1.3c.24,4.44-1.26,6.2-1.84,6.71Zm7.75,2.12h0Z" fill="#231f20"></path><path d="M184.29,64.48a2.75,2.75,0,0,0-2.41-2.05,1.7,1.7,0,0,0-1.46.57,2.67,2.67,0,0,0-.09,2.49,2.83,2.83,0,0,0,1.49,1.57,2.86,2.86,0,0,0,2.17,0" fill="#fff"></path><path d="M183,67.8a3.25,3.25,0,0,1-1.34-.28,3.31,3.31,0,0,1-1.76-1.86,3.17,3.17,0,0,1,.17-3,2.19,2.19,0,0,1,1.89-.76,3.26,3.26,0,0,1,2.86,2.45.51.51,0,0,1-.39.59.49.49,0,0,1-.59-.39,2.26,2.26,0,0,0-2-1.66,1.23,1.23,0,0,0-1,.39,2.19,2.19,0,0,0,0,2,2.29,2.29,0,0,0,3,1.33.5.5,0,0,1,.65.29.49.49,0,0,1-.28.64A3.17,3.17,0,0,1,183,67.8Z" fill="#231f20"></path><path d="M190.84,66.57a3.56,3.56,0,0,1-1-.13.5.5,0,0,1-.36-.61.5.5,0,0,1,.61-.35,2.14,2.14,0,0,0,1.12,0,10.19,10.19,0,0,0-1.38-2.7.5.5,0,1,1,.83-.55c2.06,3.12,1.54,3.68,1.35,3.89A1.63,1.63,0,0,1,190.84,66.57Z" fill="#231f20"></path><path d="M191.08,71.56a10.61,10.61,0,0,1-4-1,6.49,6.49,0,0,0,3.76,4.23Z" fill="#231f20"></path><path d="M190.86,75.25l-.16,0a7,7,0,0,1-4.08-4.58.5.5,0,0,1,.2-.53.48.48,0,0,1,.56,0,9.87,9.87,0,0,0,3.73,1,.49.49,0,0,1,.46.53l-.21,3.19a.47.47,0,0,1-.22.38A.47.47,0,0,1,190.86,75.25ZM188,71.49A5.81,5.81,0,0,0,190.42,74l.13-2A13.62,13.62,0,0,1,188,71.49Z" fill="#231f20"></path><ellipse cx="188.15" cy="60.77" rx="0.68" ry="0.41" transform="translate(93.23 234.22) rotate(-79.21)" fill="#231f20"></ellipse><ellipse cx="192.64" cy="61.57" rx="0.68" ry="0.41" transform="translate(96.09 239.28) rotate(-79.21)" fill="#231f20"></ellipse><path d="M186.71,66.38s1.52,3.08,5.3,1.37" fill="#fff"></path><path d="M189.85,68.77a4.17,4.17,0,0,1-3.59-2.17.51.51,0,0,1,.22-.67.5.5,0,0,1,.67.23c.06.12,1.38,2.62,4.66,1.13a.5.5,0,1,1,.41.91A5.68,5.68,0,0,1,189.85,68.77Z" fill="#231f20"></path><path d="M221.14,66.28s3.47-.14,3.05.84-2,1.15-2,1.15,1.87-.07,1.17,1.24" fill="#fff"></path><path d="M223.39,70a.52.52,0,0,1-.24-.05.51.51,0,0,1-.2-.68c.11-.21.1-.31.09-.32s-.47-.2-.81-.19a.5.5,0,0,1-.07-1,2.29,2.29,0,0,0,1.52-.75,7.24,7.24,0,0,0-2.52-.24.5.5,0,1,1,0-1c1.07,0,2.95,0,3.46.72a.82.82,0,0,1,.07.82,2.14,2.14,0,0,1-.88,1l.12.16a1.25,1.25,0,0,1-.06,1.32A.49.49,0,0,1,223.39,70Z" fill="#231f20"></path><path d="M168.07,92.56l-.15,0a.5.5,0,0,1-.32-.63c.13-.43,4.59-14.62,4.59-14.62l.95.3-4.59,14.62A.5.5,0,0,1,168.07,92.56Z" fill="#231f20"></path><path d="M197.08,194h13.64v4.29H190.59V195a6.07,6.07,0,0,1,1.71-4.62c1.31-1.28,3.42-2.36,6.76-3.54,4.74-1.67,6.21-2.65,6.21-4.29s-1.59-2.56-4.18-2.56c-3.1,0-5,1.41-5.25,4l-5.65-.36c.4-4.94,4.54-7.92,10.9-7.92,5.85,0,9.87,2.88,9.87,6.84,0,3.24-2.5,5.47-7.88,7.41-4.33,1.54-5,1.86-5.53,2.45A2,2,0,0,0,197.08,194Z" fill="#231f20"></path></g></svg>