<svg xmlns="http://www.w3.org/2000/svg" viewBox="0 0 400 300" width="406" height="306" class="illustration styles_illustrationTablet__1DWOa"><g id="_151_step_1_outline" data-name="#151_step_1_outline"><rect x="116.4" y="83.96" width="3.51" height="79.2" fill="#093f68"></rect><path d="M119.91,164.16H116.4a1,1,0,0,1-1-1V84a1,1,0,0,1,1-1h3.51a1,1,0,0,1,1,1v79.2A1,1,0,0,1,119.91,164.16Zm-2.51-2h1.51V85H117.4Z" fill="#093f68"></path><ellipse cx="117.58" cy="82.2" rx="5.12" ry="4.23" fill="#626E49"></ellipse><path d="M117.58,87.44c-3.37,0-6.11-2.35-6.11-5.24S114.21,77,117.58,77s6.12,2.35,6.12,5.23S121,87.44,117.58,87.44Zm0-8.47c-2.27,0-4.11,1.45-4.11,3.23s1.84,3.24,4.11,3.24S121.7,84,121.7,82.2,119.85,79,117.58,79Z" fill="#093f68"></path><polygon points="119.79 126.91 119.79 91.5 176.56 109.2 119.79 126.91" fill="#626E49"></polygon><path d="M119.79,127.91a1,1,0,0,1-.6-.2,1,1,0,0,1-.4-.8V91.5a1,1,0,0,1,1.29-1l56.77,17.71a1,1,0,0,1,0,1.91l-56.77,17.7A.93.93,0,0,1,119.79,127.91Zm1-35v32.69L173.2,109.2Z" fill="#093f68"></path><rect x="119.29" y="166.72" width="161.43" height="16.02" fill="#093f68"></rect><path d="M280.71,183.73H119.29a1,1,0,0,1-1-1v-16a1,1,0,0,1,1-1H280.71a1,1,0,0,1,1,1v16A1,1,0,0,1,280.71,183.73Zm-160.42-2H279.71v-14H120.29Z" fill="#093f68"></path><circle cx="119.29" cy="174.73" r="22.32" fill="#626E49"></circle><path d="M119.29,198a23.32,23.32,0,1,1,23.31-23.31A23.34,23.34,0,0,1,119.29,198Zm0-44.63a21.32,21.32,0,1,0,21.31,21.32A21.34,21.34,0,0,0,119.29,153.41Z" fill="#093f68"></path><circle cx="200" cy="174.73" r="22.32" fill="#fff"></circle><path d="M200,198a23.32,23.32,0,1,1,23.32-23.31A23.34,23.34,0,0,1,200,198Zm0-44.63a21.32,21.32,0,1,0,21.32,21.32A21.35,21.35,0,0,0,200,153.41Z" fill="#093f68"></path><circle cx="280.71" cy="174.73" r="22.32" fill="#fff"></circle><path d="M280.71,198A23.32,23.32,0,1,1,304,174.73,23.34,23.34,0,0,1,280.71,198Zm0-44.63A21.32,21.32,0,1,0,302,174.73,21.34,21.34,0,0,0,280.71,153.41Z" fill="#093f68"></path><path d="M270.85,85.54h-61A9.86,9.86,0,0,0,200,95.4v1.87l-11.16,4.15L200,105.31V123a9.87,9.87,0,0,0,9.86,9.86h61a9.86,9.86,0,0,0,9.86-9.86V95.4A9.85,9.85,0,0,0,270.85,85.54Z" fill="#fff"></path><path d="M270.85,133.87h-61A10.87,10.87,0,0,1,199,123V106l-10.49-3.65a1,1,0,0,1,0-1.88L199,96.57V95.4a10.87,10.87,0,0,1,10.86-10.86h61A10.87,10.87,0,0,1,281.71,95.4V123A10.87,10.87,0,0,1,270.85,133.87Zm-79.06-32.48,8.54,3a1,1,0,0,1,.67.94V123a8.88,8.88,0,0,0,8.86,8.86h61a8.87,8.87,0,0,0,8.86-8.86V95.4a8.86,8.86,0,0,0-8.86-8.86h-61A8.87,8.87,0,0,0,201,95.4v1.87a1,1,0,0,1-.65.93Z" fill="#093f68"></path><path d="M237.6,104.92l-4,2.77-3.78-5.89,8.49-5.41h7.44v24H237.6Z" fill="#093f68"></path></g></svg>