<svg xmlns="http://www.w3.org/2000/svg" viewBox="0 0 400 300" width="406" height="306" class="illustration styles_illustrationTablet__1DWOa"><g id="_152_step_2_outline" data-name="#152_step_2_outline"><rect x="198.74" y="83.96" width="3.51" height="79.2" fill="#093f68"></rect><path d="M202.26,164.16h-3.52a1,1,0,0,1-1-1V84a1,1,0,0,1,1-1h3.52a1,1,0,0,1,1,1v79.2A1,1,0,0,1,202.26,164.16Zm-2.52-2h1.52V85h-1.52Z" fill="#093f68"></path><ellipse cx="199.92" cy="82.2" rx="5.12" ry="4.23" fill="#626E49"></ellipse><path d="M199.92,87.44c-3.37,0-6.11-2.35-6.11-5.24S196.55,77,199.92,77,206,79.32,206,82.2,203.3,87.44,199.92,87.44Zm0-8.47c-2.27,0-4.11,1.45-4.11,3.23s1.84,3.24,4.11,3.24S204,84,204,82.2,202.19,79,199.92,79Z" fill="#093f68"></path><polygon points="202.13 126.91 202.13 91.5 258.9 109.2 202.13 126.91" fill="#626E49"></polygon><path d="M202.13,127.91a1,1,0,0,1-1-1V91.5a1,1,0,0,1,1.3-1l56.76,17.71a1,1,0,0,1,0,1.91l-56.76,17.7A1,1,0,0,1,202.13,127.91Zm1-35v32.69l52.41-16.35Z" fill="#093f68"></path><rect x="119.29" y="166.72" width="161.43" height="16.02" fill="#093f68"></rect><path d="M280.71,183.73H119.29a1,1,0,0,1-1-1v-16a1,1,0,0,1,1-1H280.71a1,1,0,0,1,1,1v16A1,1,0,0,1,280.71,183.73Zm-160.42-2H279.71v-14H120.29Z" fill="#093f68"></path><circle cx="119.29" cy="174.73" r="22.32" fill="#626E49"></circle><path d="M119.29,198a23.32,23.32,0,1,1,23.31-23.31A23.34,23.34,0,0,1,119.29,198Zm0-44.63a21.32,21.32,0,1,0,21.31,21.32A21.34,21.34,0,0,0,119.29,153.41Z" fill="#093f68"></path><circle cx="200" cy="174.73" r="22.32" fill="#626E49"></circle><path d="M200,198a23.32,23.32,0,1,1,23.32-23.31A23.34,23.34,0,0,1,200,198Zm0-44.63a21.32,21.32,0,1,0,21.32,21.32A21.35,21.35,0,0,0,200,153.41Z" fill="#093f68"></path><circle cx="280.71" cy="174.73" r="22.32" fill="#fff"></circle><path d="M280.71,198A23.32,23.32,0,1,1,304,174.73,23.34,23.34,0,0,1,280.71,198Zm0-44.63A21.32,21.32,0,1,0,302,174.73,21.34,21.34,0,0,0,280.71,153.41Z" fill="#093f68"></path><path d="M109.28,91.5h61a9.85,9.85,0,0,1,9.86,9.86v1.87l11.16,4.16-11.16,3.88V129a9.85,9.85,0,0,1-9.86,9.86h-61A9.86,9.86,0,0,1,99.42,129V101.36A9.86,9.86,0,0,1,109.28,91.5Z" fill="#fff"></path><path d="M170.27,139.83h-61A10.87,10.87,0,0,1,98.42,129V101.36A10.87,10.87,0,0,1,109.28,90.5h61a10.87,10.87,0,0,1,10.86,10.86v1.17l10.51,3.92a1,1,0,0,1,0,1.88L181.13,112v17A10.87,10.87,0,0,1,170.27,139.83Zm-61-47.33a8.87,8.87,0,0,0-8.86,8.86V129a8.88,8.88,0,0,0,8.86,8.86h61a8.87,8.87,0,0,0,8.86-8.86v-17.7a1,1,0,0,1,.68-.94l8.53-3-8.55-3.19a1,1,0,0,1-.66-.93v-1.87a8.86,8.86,0,0,0-8.86-8.86Z" fill="#093f68"></path><path d="M140.33,113.07a4.4,4.4,0,0,0,.95-1,1.92,1.92,0,0,0,.37-1.11,1.8,1.8,0,0,0-.42-1.19,1.66,1.66,0,0,0-1.34-.51,2,2,0,0,0-1.62.78,3.45,3.45,0,0,0-.71,2.1l-7.68-.88a9.89,9.89,0,0,1,1.22-4,9.35,9.35,0,0,1,2.45-2.8,9.82,9.82,0,0,1,3.28-1.64,13.36,13.36,0,0,1,3.74-.53,14.41,14.41,0,0,1,3.5.44,9.64,9.64,0,0,1,3.09,1.37,7.22,7.22,0,0,1,2.2,2.42,7.09,7.09,0,0,1,.85,3.59,8.07,8.07,0,0,1-.39,2.62,7.38,7.38,0,0,1-1,2,9.78,9.78,0,0,1-1.49,1.59,21.21,21.21,0,0,1-1.74,1.35L142,120.18h8.26v6.73H130.86v-6.26Z" fill="#093f68"></path></g></svg>