<svg xmlns="http://www.w3.org/2000/svg" viewBox="0 0 400 300" width="406" height="306" class="illustration styles_illustrationTablet__1DWOa"><g id="_153_step_3_outline" data-name="#153_step_3_outline"><rect x="278.96" y="83.96" width="3.51" height="79.2" transform="translate(561.43 247.12) rotate(-180)" fill="#093f68"></rect><path d="M282.47,164.16H279a1,1,0,0,1-1-1V84a1,1,0,0,1,1-1h3.51a1,1,0,0,1,1,1v79.2A1,1,0,0,1,282.47,164.16Zm-2.51-2h1.51V85H280Z" fill="#093f68"></path><ellipse cx="281.29" cy="82.2" rx="5.12" ry="4.23" fill="#626E49"></ellipse><path d="M281.29,87.44c-3.37,0-6.12-2.35-6.12-5.24S277.92,77,281.29,77s6.11,2.35,6.11,5.23S284.66,87.44,281.29,87.44Zm0-8.47c-2.27,0-4.12,1.45-4.12,3.23s1.85,3.24,4.12,3.24S285.4,84,285.4,82.2,283.56,79,281.29,79Z" fill="#093f68"></path><polygon points="279.08 126.91 279.08 91.5 222.32 109.2 279.08 126.91" fill="#626E49"></polygon><path d="M279.08,127.91a.93.93,0,0,1-.29,0L222,110.16a1,1,0,0,1,0-1.91l56.77-17.71a1,1,0,0,1,1.29,1v35.41a1,1,0,0,1-.4.8A1,1,0,0,1,279.08,127.91ZM225.67,109.2l52.41,16.35V92.86Z" fill="#093f68"></path><rect x="119.29" y="166.72" width="161.43" height="16.02" fill="#093f68"></rect><path d="M280.71,183.73H119.29a1,1,0,0,1-1-1v-16a1,1,0,0,1,1-1H280.71a1,1,0,0,1,1,1v16A1,1,0,0,1,280.71,183.73Zm-160.42-2H279.71v-14H120.29Z" fill="#093f68"></path><circle cx="119.29" cy="174.73" r="22.32" fill="#626E49"></circle><path d="M119.29,198a23.32,23.32,0,1,1,23.31-23.31A23.34,23.34,0,0,1,119.29,198Zm0-44.63a21.32,21.32,0,1,0,21.31,21.32A21.34,21.34,0,0,0,119.29,153.41Z" fill="#093f68"></path><circle cx="200" cy="174.73" r="22.32" fill="#626E49"></circle><path d="M200,198a23.32,23.32,0,1,1,23.32-23.31A23.34,23.34,0,0,1,200,198Zm0-44.63a21.32,21.32,0,1,0,21.32,21.32A21.35,21.35,0,0,0,200,153.41Z" fill="#093f68"></path><circle cx="280.71" cy="174.73" r="22.32" fill="#626E49"></circle><path d="M280.71,198A23.32,23.32,0,1,1,304,174.73,23.34,23.34,0,0,1,280.71,198Zm0-44.63A21.32,21.32,0,1,0,302,174.73,21.34,21.34,0,0,0,280.71,153.41Z" fill="#093f68"></path><path d="M125.15,91.5h61a9.86,9.86,0,0,1,9.86,9.86v1.87l11.16,4.16L196,111.27V129a9.86,9.86,0,0,1-9.86,9.86h-61a9.85,9.85,0,0,1-9.86-9.86V101.36A9.85,9.85,0,0,1,125.15,91.5Z" fill="#fff"></path><path d="M186.14,139.83h-61A10.87,10.87,0,0,1,114.29,129V101.36A10.87,10.87,0,0,1,125.15,90.5h61A10.87,10.87,0,0,1,197,101.36v1.17l10.51,3.92a1,1,0,0,1,0,1.88L197,112v17A10.87,10.87,0,0,1,186.14,139.83Zm-61-47.33a8.86,8.86,0,0,0-8.86,8.86V129a8.87,8.87,0,0,0,8.86,8.86h61A8.88,8.88,0,0,0,195,129v-17.7a1,1,0,0,1,.67-.94l8.54-3-8.56-3.19a1,1,0,0,1-.65-.93v-1.87a8.87,8.87,0,0,0-8.86-8.86Z" fill="#093f68"></path><path d="M162.52,114.36a6.3,6.3,0,0,1,1.68.84,6.23,6.23,0,0,1,1.3,1.26,5.34,5.34,0,0,1,.83,1.54,5.09,5.09,0,0,1,.28,1.67,7.06,7.06,0,0,1-.87,3.6,7.57,7.57,0,0,1-2.3,2.47,10.08,10.08,0,0,1-3.22,1.41,15.25,15.25,0,0,1-3.62.43,15.54,15.54,0,0,1-3.6-.42,11.12,11.12,0,0,1-3.25-1.33,10,10,0,0,1-2.57-2.3,8.52,8.52,0,0,1-1.57-3.32l7.51-1.76a3.21,3.21,0,0,0,1,1.63,2.89,2.89,0,0,0,2,.74,3,3,0,0,0,.71-.09,1.94,1.94,0,0,0,.68-.27,1.59,1.59,0,0,0,.51-.49,1.4,1.4,0,0,0,.2-.77,1.38,1.38,0,0,0-.95-1.43,7.91,7.91,0,0,0-2.53-.33h-2.3v-5.55h2.57a5,5,0,0,0,2.06-.36,1.35,1.35,0,0,0,.78-1.37,1.12,1.12,0,0,0-.61-1.08,2.91,2.91,0,0,0-1.29-.3,2.54,2.54,0,0,0-1.55.52,2.25,2.25,0,0,0-.88,1.54l-7.48-1.59a9.4,9.4,0,0,1,1.73-3.3,9.3,9.3,0,0,1,2.55-2.15,10.81,10.81,0,0,1,3.08-1.16,15,15,0,0,1,3.23-.36,14.59,14.59,0,0,1,3.28.39,10.23,10.23,0,0,1,3.08,1.25,7.45,7.45,0,0,1,2.27,2.2,5.79,5.79,0,0,1,.87,3.23,4.68,4.68,0,0,1-1.06,3.23,5.36,5.36,0,0,1-2.59,1.64Z" fill="#093f68"></path></g></svg>